<svg version="1.1" xmlns="http://www.w3.org/2000/svg" viewBox="0 0 875.8239440917969 772.740478515625" width="2627.4718322753906" height="2318.221435546875">
  <!-- svg-source:excalidraw -->
  
  <defs>
    <style>
      @font-face {
        font-family: "Virgil";
        src: url("https://excalidraw.com/Virgil.woff2");
      }
      @font-face {
        font-family: "Cascadia";
        src: url("https://excalidraw.com/Cascadia.woff2");
      }
    </style>
  </defs>
  <rect x="0" y="0" width="875.8239440917969" height="772.740478515625" fill="#ffffff"></rect><g stroke-linecap="round" transform="translate(155.9757080078125 10.655685424804688) rotate(0 114.83100891113281 19.41961669921875)"><path d="M0 0 C78.94 0, 157.88 0, 229.66 0 M0 0 C52.48 0, 104.96 0, 229.66 0 M229.66 0 C229.66 14.72, 229.66 29.43, 229.66 38.84 M229.66 0 C229.66 12.47, 229.66 24.94, 229.66 38.84 M229.66 38.84 C149.54 38.84, 69.43 38.84, 0 38.84 M229.66 38.84 C145.97 38.84, 62.27 38.84, 0 38.84 M0 38.84 C0 27.24, 0 15.64, 0 0 M0 38.84 C0 26.83, 0 14.82, 0 0" stroke="#000000" stroke-width="1" fill="none"></path></g><g transform="translate(214.0308380126953 18.803985595703125) rotate(0 55 11)"><text x="55" y="17" font-family="Helvetica, Segoe UI Emoji" font-size="16px" fill="#000000" text-anchor="middle" style="white-space: pre;" direction="ltr">返回地址(entry)</text></g><g stroke-linecap="round" transform="translate(155.8106384277346 49.852142333984375) rotate(0 114.71566772460926 19.525100708007812)"><path d="M0 0 C53.94 0, 107.87 0, 229.43 0 M0 0 C69.19 0, 138.38 0, 229.43 0 M229.43 0 C229.43 12.55, 229.43 25.1, 229.43 39.05 M229.43 0 C229.43 11.98, 229.43 23.95, 229.43 39.05 M229.43 39.05 C180.97 39.05, 132.51 39.05, 0 39.05 M229.43 39.05 C180.28 39.05, 131.13 39.05, 0 39.05 M0 39.05 C0 27.96, 0 16.88, 0 0 M0 39.05 C0 27.71, 0 16.37, 0 0" stroke="#e67700" stroke-width="1" fill="none"></path></g><g stroke-linecap="round" transform="translate(155.97662353515625 89.05624389648438) rotate(0 114.43037414550781 44.876678466796875)"><path d="M0 0 C89.37 0, 178.74 0, 228.86 0 M0 0 C63.3 0, 126.59 0, 228.86 0 M228.86 0 C228.86 30.68, 228.86 61.35, 228.86 89.75 M228.86 0 C228.86 35.25, 228.86 70.5, 228.86 89.75 M228.86 89.75 C146.18 89.75, 63.49 89.75, 0 89.75 M228.86 89.75 C178.68 89.75, 128.5 89.75, 0 89.75 M0 89.75 C0 56.48, 0 23.21, 0 0 M0 89.75 C0 62.37, 0 34.99, 0 0" stroke="#e67700" stroke-width="1" fill="none"></path></g><g transform="translate(206.1162872314453 111.88009643554688) rotate(0 64 22)"><text x="64" y="17" font-family="Helvetica, Segoe UI Emoji" font-size="16px" fill="#e67700" text-anchor="middle" style="white-space: pre;" direction="ltr">main() 函数中</text><text x="64" y="39" font-family="Helvetica, Segoe UI Emoji" font-size="16px" fill="#e67700" text-anchor="middle" style="white-space: pre;" direction="ltr">使用的寄存器副本</text></g><g stroke-linecap="round" transform="translate(155.82666015625 178.82501220703125) rotate(0 114.87474060058594 32.92791748046875)"><path d="M0 0 C46.88 0, 93.76 0, 229.75 0 M0 0 C63.52 0, 127.05 0, 229.75 0 M229.75 0 C229.75 26.33, 229.75 52.65, 229.75 65.86 M229.75 0 C229.75 14.96, 229.75 29.92, 229.75 65.86 M229.75 65.86 C148.64 65.86, 67.53 65.86, 0 65.86 M229.75 65.86 C167 65.86, 104.25 65.86, 0 65.86 M0 65.86 C0 39.54, 0 13.23, 0 0 M0 65.86 C0 51.09, 0 36.32, 0 0" stroke="#e67700" stroke-width="1" fill="none"></path></g><g transform="translate(189.70140075683594 200.7529296875) rotate(0 81 11)"><text x="81" y="17" font-family="Helvetica, Segoe UI Emoji" font-size="16px" fill="#e67700" text-anchor="middle" style="white-space: pre;" direction="ltr">main() 函数的局部变量</text></g><g stroke-linecap="round" transform="translate(155.90939331054688 244.77908325195312) rotate(0 115.3087158203125 30.33599853515625)"><path d="M0 0 C71.18 0, 142.36 0, 230.62 0 M0 0 C61.72 0, 123.44 0, 230.62 0 M230.62 0 C230.62 20.48, 230.62 40.97, 230.62 60.67 M230.62 0 C230.62 18.22, 230.62 36.45, 230.62 60.67 M230.62 60.67 C177.17 60.67, 123.73 60.67, 0 60.67 M230.62 60.67 C153.92 60.67, 77.23 60.67, 0 60.67 M0 60.67 C0 48.24, 0 35.81, 0 0 M0 60.67 C0 43.33, 0 25.98, 0 0" stroke="#e67700" stroke-width="1" fill="none"></path></g><g transform="translate(206.71810913085938 264.1150817871094) rotate(0 64.5 11)"><text x="64.5" y="17" font-family="Helvetica, Segoe UI Emoji" font-size="16px" fill="#e67700" text-anchor="middle" style="white-space: pre;" direction="ltr">hello() 函数的参数</text></g><g stroke-linecap="round" transform="translate(156.25238037109375 304.93408203125) rotate(0 115.28559875488281 21.68011474609375)"><path d="M0 0 C53.13 0, 106.25 0, 230.57 0 M0 0 C73.23 0, 146.47 0, 230.57 0 M230.57 0 C230.57 12.01, 230.57 24.02, 230.57 43.36 M230.57 0 C230.57 13.05, 230.57 26.11, 230.57 43.36 M230.57 43.36 C159.89 43.36, 89.21 43.36, 0 43.36 M230.57 43.36 C158.43 43.36, 86.3 43.36, 0 43.36 M0 43.36 C0 28.18, 0 13, 0 0 M0 43.36 C0 32.84, 0 22.31, 0 0" stroke="#e67700" stroke-width="1" fill="none"></path></g><g transform="translate(188.53797912597656 315.6918640136719) rotate(0 83 11)"><text x="83" y="17" font-family="Helvetica, Segoe UI Emoji" font-size="16px" fill="#e67700" text-anchor="middle" style="white-space: pre;" direction="ltr">返回地址(main + offset)</text></g><g stroke-linecap="round" transform="translate(367.3644104003906 323.8165283203125) rotate(0 3.3673095703125 3.868194580078125)"><path d="M5.53 0.9 C6.08 1.44, 6.56 2.38, 6.68 3.2 C6.81 4.01, 6.64 5.08, 6.28 5.8 C5.92 6.52, 5.2 7.22, 4.52 7.5 C3.84 7.79, 2.89 7.79, 2.22 7.5 C1.54 7.22, 0.81 6.52, 0.45 5.8 C0.09 5.08, -0.07 4.01, 0.05 3.2 C0.18 2.38, 0.65 1.44, 1.2 0.9 C1.76 0.37, 2.65 0, 3.37 0 C4.09 0, 4.98 0.37, 5.53 0.9" stroke="#000000" stroke-width="1" fill="none"></path></g><g stroke-linecap="round"><g transform="translate(372.8688659667969 327.98541259765625) rotate(0 51.46905517578125 -0.033056326018538584)"><path d="M0 0 C17.16 -0.01, 85.78 -0.06, 102.94 -0.07 M0 0 C17.16 -0.01, 85.78 -0.06, 102.94 -0.07" stroke="#000000" stroke-width="1" fill="none"></path></g><g transform="translate(372.8688659667969 327.98541259765625) rotate(0 51.46905517578125 -0.033056326018538584)"><path d="M74.75 10.21 C83.9 6.88, 93.06 3.54, 102.94 -0.07 M74.75 10.21 C83.38 7.07, 92 3.92, 102.94 -0.07" stroke="#000000" stroke-width="1" fill="none"></path></g><g transform="translate(372.8688659667969 327.98541259765625) rotate(0 51.46905517578125 -0.033056326018538584)"><path d="M74.74 -10.31 C83.9 -6.98, 93.05 -3.66, 102.94 -0.07 M74.74 -10.31 C83.37 -7.18, 91.99 -4.04, 102.94 -0.07" stroke="#000000" stroke-width="1" fill="none"></path></g></g><g transform="translate(490.0008239746094 318.58026123046875) rotate(0 134.5 11)"><text x="0" y="17" font-family="Helvetica, Segoe UI Emoji" font-size="16px" fill="#000000" text-anchor="start" style="white-space: pre;" direction="ltr">call hello() 时，其后下一条指令的地址</text></g><g stroke-linecap="round"><g transform="translate(10 49.5159912109375) rotate(0 72.48945617675781 -0.0377197265625)"><path d="M0 0 C24.16 -0.01, 120.82 -0.06, 144.98 -0.08 M0 0 C24.16 -0.01, 120.82 -0.06, 144.98 -0.08" stroke="#e67700" stroke-width="1" fill="none"></path></g></g><g stroke-linecap="round"><g transform="translate(115.05274039369533 50.85635482606375) rotate(0 0.048245281667959716 97.09373420806187)"><path d="M0 0 C0.02 32.36, 0.08 161.82, 0.1 194.19 M0 0 C0.02 32.36, 0.08 161.82, 0.1 194.19" stroke="#e67700" stroke-width="1" fill="none"></path></g><g transform="translate(115.05274039369533 50.85635482606375) rotate(0 0.048245281667959716 97.09373420806187)"><path d="M-10.18 166 C-6.28 176.68, -2.39 187.36, 0.1 194.19 M-10.18 166 C-7.09 174.48, -4 182.96, 0.1 194.19" stroke="#e67700" stroke-width="1" fill="none"></path></g><g transform="translate(115.05274039369533 50.85635482606375) rotate(0 0.048245281667959716 97.09373420806187)"><path d="M10.34 165.99 C6.46 176.68, 2.58 187.36, 0.1 194.19 M10.34 165.99 C7.26 174.48, 4.18 182.96, 0.1 194.19" stroke="#e67700" stroke-width="1" fill="none"></path></g></g><g transform="translate(19.974365234375 138.901123046875) rotate(0 41.5 18)"><text x="0" y="14" font-family="Helvetica, Segoe UI Emoji" font-size="16px" fill="#e67700" text-anchor="start" style="white-space: pre;" direction="ltr">main()</text><text x="0" y="32" font-family="Helvetica, Segoe UI Emoji" font-size="16px" fill="#e67700" text-anchor="start" style="white-space: pre;" direction="ltr">stack frame</text></g><g stroke-linecap="round" transform="translate(156.31602478027344 348.6459045410156) rotate(0 114.71566772460926 19.525100708007812)"><path d="M0 0 C51.47 0, 102.93 0, 229.43 0 M0 0 C88.32 0, 176.64 0, 229.43 0 M229.43 0 C229.43 15.62, 229.43 31.23, 229.43 39.05 M229.43 0 C229.43 12.32, 229.43 24.65, 229.43 39.05 M229.43 39.05 C158.54 39.05, 87.66 39.05, 0 39.05 M229.43 39.05 C156.28 39.05, 83.13 39.05, 0 39.05 M0 39.05 C0 28.5, 0 17.96, 0 0 M0 39.05 C0 29.81, 0 20.57, 0 0" stroke="#1864ab" stroke-width="1" fill="none"></path></g><g stroke-linecap="round" transform="translate(156.4820098876953 387.8500061035156) rotate(0 114.43037414550781 44.876678466796875)"><path d="M0 0 C45.81 0, 91.62 0, 228.86 0 M0 0 C60.6 0, 121.21 0, 228.86 0 M228.86 0 C228.86 24.99, 228.86 49.97, 228.86 89.75 M228.86 0 C228.86 30.6, 228.86 61.2, 228.86 89.75 M228.86 89.75 C145.8 89.75, 62.74 89.75, 0 89.75 M228.86 89.75 C163.1 89.75, 97.34 89.75, 0 89.75 M0 89.75 C0 55.14, 0 20.53, 0 0 M0 89.75 C0 60.1, 0 30.45, 0 0" stroke="#1864ab" stroke-width="1" fill="none"></path></g><g transform="translate(206.54403686523438 410.6738586425781) rotate(0 64 22)"><text x="64" y="17" font-family="Helvetica, Segoe UI Emoji" font-size="16px" fill="#1864ab" text-anchor="middle" style="white-space: pre;" direction="ltr">hello() 函数中</text><text x="64" y="39" font-family="Helvetica, Segoe UI Emoji" font-size="16px" fill="#1864ab" text-anchor="middle" style="white-space: pre;" direction="ltr">使用的寄存器副本</text></g><g stroke-linecap="round" transform="translate(156.33204650878906 477.6187744140625) rotate(0 114.87474060058594 32.92791748046875)"><path d="M0 0 C87.1 0, 174.19 0, 229.75 0 M0 0 C64.28 0, 128.56 0, 229.75 0 M229.75 0 C229.75 23.45, 229.75 46.91, 229.75 65.86 M229.75 0 C229.75 25.78, 229.75 51.57, 229.75 65.86 M229.75 65.86 C149.21 65.86, 68.67 65.86, 0 65.86 M229.75 65.86 C140.82 65.86, 51.89 65.86, 0 65.86 M0 65.86 C0 44.37, 0 22.89, 0 0 M0 65.86 C0 39.63, 0 13.4, 0 0" stroke="#1864ab" stroke-width="1" fill="none"></path></g><g transform="translate(190.706787109375 499.54669189453125) rotate(0 80.5 11)"><text x="80.5" y="17" font-family="Helvetica, Segoe UI Emoji" font-size="16px" fill="#1864ab" text-anchor="middle" style="white-space: pre;" direction="ltr">hello() 函数的局部变量</text></g><g stroke-linecap="round" transform="translate(156.41477966308594 543.5728454589844) rotate(0 115.3087158203125 30.33599853515625)"><path d="M0 0 C76.41 0, 152.82 0, 230.62 0 M0 0 C55.06 0, 110.13 0, 230.62 0 M230.62 0 C230.62 17.43, 230.62 34.85, 230.62 60.67 M230.62 0 C230.62 13.95, 230.62 27.89, 230.62 60.67 M230.62 60.67 C168.88 60.67, 107.15 60.67, 0 60.67 M230.62 60.67 C153.42 60.67, 76.23 60.67, 0 60.67 M0 60.67 C0 45.89, 0 31.11, 0 0 M0 60.67 C0 47.59, 0 34.5, 0 0" stroke="#1864ab" stroke-width="1" fill="none"></path></g><g transform="translate(205.22349548339844 562.9088439941406) rotate(0 66.5 11)"><text x="66.5" y="17" font-family="Helvetica, Segoe UI Emoji" font-size="16px" fill="#1864ab" text-anchor="middle" style="white-space: pre;" direction="ltr">world() 函数的参数</text></g><g stroke-linecap="round" transform="translate(156.7577667236328 603.7278442382812) rotate(0 115.28559875488281 21.68011474609375)"><path d="M0 0 C54.8 0, 109.59 0, 230.57 0 M0 0 C65.12 0, 130.24 0, 230.57 0 M230.57 0 C230.57 14.78, 230.57 29.55, 230.57 43.36 M230.57 0 C230.57 15, 230.57 30, 230.57 43.36 M230.57 43.36 C139.11 43.36, 47.64 43.36, 0 43.36 M230.57 43.36 C174.2 43.36, 117.83 43.36, 0 43.36 M0 43.36 C0 27.82, 0 12.29, 0 0 M0 43.36 C0 26.19, 0 9.02, 0 0" stroke="#1864ab" stroke-width="1" fill="none"></path></g><g transform="translate(189.04336547851562 614.407958984375) rotate(0 83 11)"><text x="83" y="17" font-family="Helvetica, Segoe UI Emoji" font-size="16px" fill="#1864ab" text-anchor="middle" style="white-space: pre;" direction="ltr">返回地址(hello + offset)</text></g><g stroke-linecap="round"><g transform="translate(10.505386352539062 348.30975341796875) rotate(0 72.48945617675781 -0.0377197265625)"><path d="M0 0 C24.16 -0.01, 120.82 -0.06, 144.98 -0.08 M0 0 C24.16 -0.01, 120.82 -0.06, 144.98 -0.08" stroke="#1864ab" stroke-width="1" fill="none"></path></g></g><g stroke-linecap="round"><g transform="translate(116.34104919433594 348.94891357421875) rotate(0 -0.3432159423828125 97.4443359375)"><path d="M0 0 C-0.11 32.48, -0.57 162.41, -0.69 194.89 M0 0 C-0.11 32.48, -0.57 162.41, -0.69 194.89" stroke="#1864ab" stroke-width="1" fill="none"></path></g><g transform="translate(116.34104919433594 348.94891357421875) rotate(0 -0.3432159423828125 97.4443359375)"><path d="M-10.85 166.66 C-6.94 177.53, -3.02 188.39, -0.69 194.89 M-10.85 166.66 C-6.78 177.95, -2.72 189.24, -0.69 194.89" stroke="#1864ab" stroke-width="1" fill="none"></path></g><g transform="translate(116.34104919433594 348.94891357421875) rotate(0 -0.3432159423828125 97.4443359375)"><path d="M9.67 166.73 C5.69 177.57, 1.7 188.41, -0.69 194.89 M9.67 166.73 C5.53 177.99, 1.39 189.25, -0.69 194.89" stroke="#1864ab" stroke-width="1" fill="none"></path></g></g><g transform="translate(20.479751586914062 437.69488525390625) rotate(0 41.5 18)"><text x="0" y="14" font-family="Helvetica, Segoe UI Emoji" font-size="16px" fill="#1864ab" text-anchor="start" style="white-space: pre;" direction="ltr">hello()</text><text x="0" y="32" font-family="Helvetica, Segoe UI Emoji" font-size="16px" fill="#1864ab" text-anchor="start" style="white-space: pre;" direction="ltr">stack frame</text></g><g stroke-linecap="round" transform="translate(156.9324493408203 647.0299377441406) rotate(0 114.71566772460926 19.525100708007812)"><path d="M0 0 C50.33 0, 100.67 0, 229.43 0 M0 0 C61.36 0, 122.72 0, 229.43 0 M229.43 0 C229.43 9.88, 229.43 19.75, 229.43 39.05 M229.43 0 C229.43 8.91, 229.43 17.82, 229.43 39.05 M229.43 39.05 C152.44 39.05, 75.46 39.05, 0 39.05 M229.43 39.05 C160.71 39.05, 92 39.05, 0 39.05 M0 39.05 C0 26.3, 0 13.56, 0 0 M0 39.05 C0 27.6, 0 16.16, 0 0" stroke="#087f5b" stroke-width="1" fill="none"></path></g><g stroke-linecap="round"><g transform="translate(11.121810913085938 646.6937866210938) rotate(0 72.48945617675781 -0.0377197265625)"><path d="M0 0 C24.16 -0.01, 120.82 -0.06, 144.98 -0.08 M0 0 C24.16 -0.01, 120.82 -0.06, 144.98 -0.08" stroke="#087f5b" stroke-width="1" fill="none"></path></g></g><g stroke-linecap="round"><g transform="translate(116.59968566894531 647.2218933105469) rotate(0 0.1857452392578125 52.40586853027344)"><path d="M0 0 C0.06 17.47, 0.31 87.34, 0.37 104.81 M0 0 C0.06 17.47, 0.31 87.34, 0.37 104.81" stroke="#087f5b" stroke-width="1" fill="none"></path></g><g transform="translate(116.59968566894531 647.2218933105469) rotate(0 0.1857452392578125 52.40586853027344)"><path d="M-9.99 76.66 C-7.22 84.19, -4.45 91.72, 0.37 104.81 M-9.99 76.66 C-7.37 83.78, -4.75 90.9, 0.37 104.81" stroke="#087f5b" stroke-width="1" fill="none"></path></g><g transform="translate(116.59968566894531 647.2218933105469) rotate(0 0.1857452392578125 52.40586853027344)"><path d="M10.53 76.58 C7.81 84.13, 5.1 91.68, 0.37 104.81 M10.53 76.58 C7.96 83.72, 5.39 90.86, 0.37 104.81" stroke="#087f5b" stroke-width="1" fill="none"></path></g></g><g transform="translate(21.249740600585938 683.1715087890625) rotate(0 41.5 18)"><text x="0" y="14" font-family="Helvetica, Segoe UI Emoji" font-size="16px" fill="#087f5b" text-anchor="start" style="white-space: pre;" direction="ltr">world()</text><text x="0" y="32" font-family="Helvetica, Segoe UI Emoji" font-size="16px" fill="#087f5b" text-anchor="start" style="white-space: pre;" direction="ltr">stack frame</text></g><g stroke-linecap="round" transform="translate(156.96090698242188 686.1760864257812) rotate(0 114.7674560546875 38.282196044921875)"><path d="M0 0 C65.35 0, 130.71 0, 229.53 0 M0 0 C55.84 0, 111.68 0, 229.53 0 M229.53 0 C229.53 29.76, 229.53 59.51, 229.53 76.56 M229.53 0 C229.53 28.61, 229.53 57.21, 229.53 76.56 M229.53 76.56 C169.81 76.56, 110.09 76.56, 0 76.56 M229.53 76.56 C139.28 76.56, 49.02 76.56, 0 76.56 M0 76.56 C0 49.47, 0 22.38, 0 0 M0 76.56 C0 51.06, 0 25.56, 0 0" stroke="#087f5b" stroke-width="1" fill="none"></path></g><g transform="translate(258.2283630371094 715.4582824707031) rotate(0 13.5 9)"><text x="13.5" y="14" font-family="Helvetica, Segoe UI Emoji" font-size="16px" fill="#087f5b" text-anchor="middle" style="white-space: pre;" direction="ltr">......</text></g><g stroke-linecap="round" transform="translate(365.20001220703125 427.8018493652344) rotate(0 3.3673095703125 3.868194580078125)"><path d="M5.53 0.9 C6.08 1.44, 6.56 2.38, 6.68 3.2 C6.81 4.01, 6.64 5.08, 6.28 5.8 C5.92 6.52, 5.2 7.22, 4.52 7.5 C3.84 7.79, 2.89 7.79, 2.22 7.5 C1.54 7.22, 0.81 6.52, 0.45 5.8 C0.09 5.08, -0.07 4.01, 0.05 3.2 C0.18 2.38, 0.65 1.44, 1.2 0.9 C1.76 0.37, 2.65 0, 3.37 0 C4.09 0, 4.98 0.37, 5.53 0.9" stroke="#000000" stroke-width="1" fill="none"></path></g><g stroke-linecap="round"><g transform="translate(370.7044677734375 431.9707336425781) rotate(0 53.969024658203125 0.009863980266686667)"><path d="M0 0 C17.99 0, 89.95 0.02, 107.94 0.02 M0 0 C17.99 0, 89.95 0.02, 107.94 0.02" stroke="#000000" stroke-width="1" fill="none"></path></g><g transform="translate(370.7044677734375 431.9707336425781) rotate(0 53.969024658203125 0.009863980266686667)"><path d="M79.75 10.28 C85.64 8.13, 91.54 5.98, 107.94 0.02 M79.75 10.28 C88.94 6.93, 98.13 3.59, 107.94 0.02" stroke="#000000" stroke-width="1" fill="none"></path></g><g transform="translate(370.7044677734375 431.9707336425781) rotate(0 53.969024658203125 0.009863980266686667)"><path d="M79.75 -10.25 C85.65 -8.1, 91.55 -5.95, 107.94 0.02 M79.75 -10.25 C88.94 -6.9, 98.14 -3.55, 107.94 0.02" stroke="#000000" stroke-width="1" fill="none"></path></g></g><g transform="translate(484.8239440917969 406.1394958496094) rotate(0 190.5 22)"><text x="0" y="17" font-family="Helvetica, Segoe UI Emoji" font-size="16px" fill="#000000" text-anchor="start" style="white-space: pre;" direction="ltr">对于 main()，hello() 为 callee，callee-saved registers</text><text x="0" y="39" font-family="Helvetica, Segoe UI Emoji" font-size="16px" fill="#000000" text-anchor="start" style="white-space: pre;" direction="ltr">对于 world()，hello() 为 caller，caller-saved registers</text></g><g transform="translate(172.02630615234398 60.37724304199219) rotate(0 98.5 9)"><text x="98.5" y="14" font-family="Helvetica, Segoe UI Emoji" font-size="16px" fill="#e67700" text-anchor="middle" style="white-space: pre;" direction="ltr">Frame Pointer: entry(NULL)</text></g><g transform="translate(233.4540557861328 359.17100524902344) rotate(0 37.5 9)"><text x="37.5" y="14" font-family="Helvetica, Segoe UI Emoji" font-size="16px" fill="#1864ab" text-anchor="middle" style="white-space: pre;" direction="ltr">FP: main()</text></g><g transform="translate(234.57041931152344 657.6327362060547) rotate(0 37 9)"><text x="37" y="14" font-family="Helvetica, Segoe UI Emoji" font-size="16px" fill="#2b8a3e" text-anchor="middle" style="white-space: pre;" direction="ltr">FP: hello()</text></g><g stroke-linecap="round"><g transform="translate(456.8066711425781 89.01461791992188) rotate(0 -35.414947509765625 -0.38494873046875)"><path d="M0 0 C-11.8 -0.13, -59.02 -0.64, -70.83 -0.77 M0 0 C-11.8 -0.13, -59.02 -0.64, -70.83 -0.77" stroke="#e67700" stroke-width="1" fill="none"></path></g><g transform="translate(456.8066711425781 89.01461791992188) rotate(0 -35.414947509765625 -0.38494873046875)"><path d="M-42.53 -10.72 C-48.32 -8.69, -54.11 -6.65, -70.83 -0.77 M-42.53 -10.72 C-52.49 -7.22, -62.46 -3.71, -70.83 -0.77" stroke="#e67700" stroke-width="1" fill="none"></path></g><g transform="translate(456.8066711425781 89.01461791992188) rotate(0 -35.414947509765625 -0.38494873046875)"><path d="M-42.75 9.8 C-48.49 7.64, -54.24 5.47, -70.83 -0.77 M-42.75 9.8 C-52.64 6.08, -62.52 2.36, -70.83 -0.77" stroke="#e67700" stroke-width="1" fill="none"></path></g></g><g transform="translate(474.2596130371094 76.52597045898438) rotate(0 49 11)"><text x="0" y="17" font-family="Helvetica, Segoe UI Emoji" font-size="16px" fill="#e67700" text-anchor="start" style="white-space: pre;" direction="ltr">main() 帧指针</text></g><g stroke-linecap="round"><g transform="translate(463.4484558105469 387.74884033203125) rotate(0 -39.567352294921875 -0.256683349609375)"><path d="M0 0 C-13.19 -0.09, -65.95 -0.43, -79.13 -0.51 M0 0 C-13.19 -0.09, -65.95 -0.43, -79.13 -0.51" stroke="#1864ab" stroke-width="1" fill="none"></path></g><g transform="translate(463.4484558105469 387.74884033203125) rotate(0 -39.567352294921875 -0.256683349609375)"><path d="M-50.88 -10.59 C-61.96 -6.64, -73.04 -2.69, -79.13 -0.51 M-50.88 -10.59 C-57.07 -8.38, -63.26 -6.18, -79.13 -0.51" stroke="#1864ab" stroke-width="1" fill="none"></path></g><g transform="translate(463.4484558105469 387.74884033203125) rotate(0 -39.567352294921875 -0.256683349609375)"><path d="M-51.01 9.93 C-62.04 5.83, -73.07 1.74, -79.13 -0.51 M-51.01 9.93 C-57.17 7.64, -63.33 5.35, -79.13 -0.51" stroke="#1864ab" stroke-width="1" fill="none"></path></g></g><g transform="translate(478.4730529785156 373.20196533203125) rotate(0 48.5 11)"><text x="0" y="17" font-family="Helvetica, Segoe UI Emoji" font-size="16px" fill="#1864ab" text-anchor="start" style="white-space: pre;" direction="ltr">hello() 帧指针</text></g><g stroke-linecap="round"><g transform="translate(474.8832092285156 684.8574267649827) rotate(0 -41.7430107156988 -0.15812820219900914)"><path d="M0 0 C-13.91 -0.05, -69.57 -0.26, -83.49 -0.32 M0 0 C-13.91 -0.05, -69.57 -0.26, -83.49 -0.32" stroke="#2b8a3e" stroke-width="1" fill="none"></path></g><g transform="translate(474.8832092285156 684.8574267649827) rotate(0 -41.7430107156988 -0.15812820219900914)"><path d="M-55.26 -10.47 C-61.7 -8.15, -68.14 -5.83, -83.49 -0.32 M-55.26 -10.47 C-63.26 -7.59, -71.27 -4.71, -83.49 -0.32" stroke="#2b8a3e" stroke-width="1" fill="none"></path></g><g transform="translate(474.8832092285156 684.8574267649827) rotate(0 -41.7430107156988 -0.15812820219900914)"><path d="M-55.33 10.05 C-61.76 7.68, -68.19 5.32, -83.49 -0.32 M-55.33 10.05 C-63.32 7.11, -71.31 4.17, -83.49 -0.32" stroke="#2b8a3e" stroke-width="1" fill="none"></path></g></g><g transform="translate(487.9744567871094 672.924072265625) rotate(0 50.5 11)"><text x="0" y="17" font-family="Helvetica, Segoe UI Emoji" font-size="16px" fill="#2b8a3e" text-anchor="start" style="white-space: pre;" direction="ltr">world() 帧指针</text></g><g stroke-linecap="round"><g transform="translate(385.8887023925781 10.752029418945312) rotate(0 36.894927978515625 0.1246795654296875)"><path d="M0 0 C12.3 0.04, 61.49 0.21, 73.79 0.25 M0 0 C12.3 0.04, 61.49 0.21, 73.79 0.25" stroke="#000000" stroke-width="1" fill="none"></path></g></g><g stroke-linecap="round"><g transform="translate(387.6504211425781 65.31468200683594) rotate(0 23.91583824157715 -20.58278411865234)"><path d="M0 0 C7.13 1.55, 34.85 18.16, 42.77 9.31 C50.69 0.47, 46.75 -42.66, 47.55 -53.05 M0 0 C7.13 1.55, 34.85 18.16, 42.77 9.31 C50.69 0.47, 46.75 -42.66, 47.55 -53.05" stroke="#000000" stroke-width="1" fill="none"></path></g><g transform="translate(387.6504211425781 65.31468200683594) rotate(0 23.91583824157715 -20.58278411865234)"><path d="M58 -24.94 C53.84 -36.12, 49.68 -47.31, 47.55 -53.05 M58 -24.94 C54.08 -35.48, 50.16 -46.02, 47.55 -53.05" stroke="#000000" stroke-width="1" fill="none"></path></g><g transform="translate(387.6504211425781 65.31468200683594) rotate(0 23.91583824157715 -20.58278411865234)"><path d="M37.48 -24.79 C41.49 -36.04, 45.49 -47.28, 47.55 -53.05 M37.48 -24.79 C41.26 -35.39, 45.03 -45.98, 47.55 -53.05" stroke="#000000" stroke-width="1" fill="none"></path></g></g><g stroke-linecap="round"><g transform="translate(388.2847595214844 666.7046508789062) rotate(0 20.763347625732422 -132.77070141601564)"><path d="M0 0 C6.27 -1.44, 30.81 38, 37.6 -8.61 C44.39 -55.23, 40.23 -234.5, 40.75 -279.68 M0 0 C6.27 -1.44, 30.81 38, 37.6 -8.61 C44.39 -55.23, 40.23 -234.5, 40.75 -279.68" stroke="#000000" stroke-width="1" fill="none"></path></g><g transform="translate(388.2847595214844 666.7046508789062) rotate(0 20.763347625732422 -132.77070141601564)"><path d="M51.16 -251.55 C48.9 -257.68, 46.63 -263.81, 40.75 -279.68 M51.16 -251.55 C47.96 -260.2, 44.76 -268.86, 40.75 -279.68" stroke="#000000" stroke-width="1" fill="none"></path></g><g transform="translate(388.2847595214844 666.7046508789062) rotate(0 20.763347625732422 -132.77070141601564)"><path d="M30.64 -251.44 C32.85 -257.59, 35.05 -263.75, 40.75 -279.68 M30.64 -251.44 C33.75 -260.13, 36.86 -268.81, 40.75 -279.68" stroke="#000000" stroke-width="1" fill="none"></path></g></g><g stroke-linecap="round"><g transform="translate(387.8612976074219 364.8753662109375) rotate(0 21.399024963378906 -132.00539453124998)"><path d="M0 0 C6.42 -2.27, 31.5 32.07, 38.54 -13.64 C45.58 -59.35, 41.62 -230.83, 42.24 -274.27 M0 0 C6.42 -2.27, 31.5 32.07, 38.54 -13.64 C45.58 -59.35, 41.62 -230.83, 42.24 -274.27" stroke="#000000" stroke-width="1" fill="none"></path></g><g transform="translate(387.8612976074219 364.8753662109375) rotate(0 21.399024963378906 -132.00539453124998)"><path d="M52.61 -246.12 C49.93 -253.4, 47.24 -260.68, 42.24 -274.27 M52.61 -246.12 C48.75 -256.58, 44.9 -267.05, 42.24 -274.27" stroke="#000000" stroke-width="1" fill="none"></path></g><g transform="translate(387.8612976074219 364.8753662109375) rotate(0 21.399024963378906 -132.00539453124998)"><path d="M32.09 -246.04 C34.71 -253.34, 37.34 -260.64, 42.24 -274.27 M32.09 -246.04 C35.86 -256.53, 39.64 -267.03, 42.24 -274.27" stroke="#000000" stroke-width="1" fill="none"></path></g></g><g transform="translate(20.368194580078125 10) rotate(0 41.5 18)"><text x="0" y="14" font-family="Helvetica, Segoe UI Emoji" font-size="16px" fill="#000000" text-anchor="start" style="white-space: pre;" direction="ltr">entry</text><text x="0" y="32" font-family="Helvetica, Segoe UI Emoji" font-size="16px" fill="#000000" text-anchor="start" style="white-space: pre;" direction="ltr">stack frame</text></g></svg>