<svg version="1.1" xmlns="http://www.w3.org/2000/svg" viewBox="0 0 538.156982421875 352.02796936035134" width="1614.470947265625" height="1056.083908081054">
  <!-- svg-source:excalidraw -->
  
  <defs>
    <style>
      @font-face {
        font-family: "Virgil";
        src: url("https://excalidraw.com/Virgil.woff2");
      }
      @font-face {
        font-family: "Cascadia";
        src: url("https://excalidraw.com/Cascadia.woff2");
      }
    </style>
  </defs>
  <rect x="0" y="0" width="538.156982421875" height="352.02796936035134" fill="#ffffff"></rect><g stroke-linecap="round" transform="translate(10 11.70465087890625) rotate(0 102.97834777832031 150.11936950683594)"><path d="M0 0 C73.36 0, 146.72 0, 205.96 0 M205.96 0 C205.96 119.81, 205.96 239.62, 205.96 300.24 M205.96 300.24 C157.05 300.24, 108.14 300.24, 0 300.24 M0 300.24 C0 184.6, 0 68.97, 0 0" stroke="#f1f3f5" stroke-width="1.5" fill="none" stroke-dasharray="8 9"></path></g><g transform="translate(76.08421325683594 111.40126037597634) rotate(0 36.5 45)"><text x="0" y="14" font-family="Helvetica, Segoe UI Emoji" font-size="16px" fill="#e67700" text-anchor="start" style="white-space: pre;" direction="ltr">fn main() {</text><text x="0" y="32" font-family="Helvetica, Segoe UI Emoji" font-size="16px" fill="#e67700" text-anchor="start" style="white-space: pre;" direction="ltr">    // ...</text><text x="0" y="50" font-family="Helvetica, Segoe UI Emoji" font-size="16px" fill="#e67700" text-anchor="start" style="white-space: pre;" direction="ltr">    </text><text x="0" y="68" font-family="Helvetica, Segoe UI Emoji" font-size="16px" fill="#e67700" text-anchor="start" style="white-space: pre;" direction="ltr">    // ...</text><text x="0" y="86" font-family="Helvetica, Segoe UI Emoji" font-size="16px" fill="#e67700" text-anchor="start" style="white-space: pre;" direction="ltr">}</text></g><g stroke-linecap="round" transform="translate(322.2002868652344 10) rotate(0 102.97834777832031 150.11936950683594)"><path d="M0 0 C50.81 0, 101.62 0, 205.96 0 M205.96 0 C205.96 104.31, 205.96 208.62, 205.96 300.24 M205.96 300.24 C143.98 300.24, 82.01 300.24, 0 300.24 M0 300.24 C0 211.2, 0 122.16, 0 0" stroke="#f1f3f5" stroke-width="1.5" fill="none" stroke-dasharray="8 9"></path></g><g transform="translate(346.79222106933594 117.94648742675759) rotate(0 80.5 36)"><text x="0" y="14" font-family="Helvetica, Segoe UI Emoji" font-size="16px" fill="#1864ab" text-anchor="start" style="white-space: pre;" direction="ltr">fn hello(i: u32) -&gt; u32 {</text><text x="0" y="32" font-family="Helvetica, Segoe UI Emoji" font-size="16px" fill="#1864ab" text-anchor="start" style="white-space: pre;" direction="ltr">    let x = 41;</text><text x="0" y="50" font-family="Helvetica, Segoe UI Emoji" font-size="16px" fill="#1864ab" text-anchor="start" style="white-space: pre;" direction="ltr">    x + i</text><text x="0" y="68" font-family="Helvetica, Segoe UI Emoji" font-size="16px" fill="#1864ab" text-anchor="start" style="white-space: pre;" direction="ltr">}</text></g><g transform="translate(93.09495544433594 146.3376312255857) rotate(0 29 9)"><text x="0" y="14" font-family="Helvetica, Segoe UI Emoji" font-size="16px" fill="#1864ab" text-anchor="start" style="white-space: pre;" direction="ltr">hello(1);</text></g><g stroke-linecap="round"><g transform="translate(158.03562927246094 145.07255554199196) rotate(0 91.3546142578125 -11.147994995117188)"><path d="M0 0 C30.45 -3.72, 152.26 -18.58, 182.71 -22.3" stroke="#1864ab" stroke-width="1.5" fill="none" stroke-dasharray="8 9"></path></g><g transform="translate(158.03562927246094 145.07255554199196) rotate(0 91.3546142578125 -11.147994995117188)"><path d="M155.97 -8.7 C162.68 -12.11, 169.38 -15.52, 182.71 -22.3" stroke="#1864ab" stroke-width="1.5" fill="none"></path></g><g transform="translate(158.03562927246094 145.07255554199196) rotate(0 91.3546142578125 -11.147994995117188)"><path d="M153.48 -29.07 C160.81 -27.37, 168.15 -25.67, 182.71 -22.3" stroke="#1864ab" stroke-width="1.5" fill="none"></path></g></g><g stroke-linecap="round"><g transform="translate(345.8972625732422 183.75447082519509) rotate(0 -95.22982788085938 -10.04736328125)"><path d="M0 0 C-31.74 -3.35, -158.72 -16.75, -190.46 -20.09" stroke="#1864ab" stroke-width="1.5" fill="none" stroke-dasharray="8 9"></path></g><g transform="translate(345.8972625732422 183.75447082519509) rotate(0 -95.22982788085938 -10.04736328125)"><path d="M-161.35 -27.34 C-169.65 -25.27, -177.95 -23.21, -190.46 -20.09" stroke="#1864ab" stroke-width="1.5" fill="none"></path></g><g transform="translate(345.8972625732422 183.75447082519509) rotate(0 -95.22982788085938 -10.04736328125)"><path d="M-163.5 -6.93 C-171.19 -10.69, -178.88 -14.44, -190.46 -20.09" stroke="#1864ab" stroke-width="1.5" fill="none"></path></g></g><g transform="translate(263.00108337402344 107.19554138183571) rotate(0 8 9.5)"><text x="0" y="15" font-family="Helvetica, Segoe UI Emoji" font-size="16px" fill="#1864ab" text-anchor="start" style="white-space: pre;" direction="ltr">1⃣️</text></g><g transform="translate(262.93150329589844 178.96229553222634) rotate(0 8 9.5)"><text x="0" y="15" font-family="Helvetica, Segoe UI Emoji" font-size="16px" fill="#1864ab" text-anchor="start" style="white-space: pre;" direction="ltr">2⃣️</text></g><g transform="translate(98.38435363769531 324.02796936035134) rotate(0 19 9)"><text x="0" y="14" font-family="Helvetica, Segoe UI Emoji" font-size="16px" fill="#000000" text-anchor="start" style="white-space: pre;" direction="ltr">caller</text></g><g transform="translate(411.86119079589844 323.8242950439451) rotate(0 21 9)"><text x="0" y="14" font-family="Helvetica, Segoe UI Emoji" font-size="16px" fill="#000000" text-anchor="start" style="white-space: pre;" direction="ltr">callee</text></g></svg>