<svg version="1.1" xmlns="http://www.w3.org/2000/svg" viewBox="0 0 285.99371337890625 743.3273315429688" width="857.9811401367188" height="2229.9819946289062">
  <!-- svg-source:excalidraw -->
  
  <defs>
    <style>
      @font-face {
        font-family: "Virgil";
        src: url("https://excalidraw.com/Virgil.woff2");
      }
      @font-face {
        font-family: "Cascadia";
        src: url("https://excalidraw.com/Cascadia.woff2");
      }
    </style>
  </defs>
  <rect x="0" y="0" width="285.99371337890625" height="743.3273315429688" fill="#ffffff"></rect><g stroke-linecap="round" transform="translate(10 10) rotate(0 130.15438842773438 57.03840637207031)"><path d="M0 0 C90.4 0, 180.81 0, 260.31 0 M0 0 C69.29 0, 138.59 0, 260.31 0 M260.31 0 C260.31 26.56, 260.31 53.13, 260.31 114.08 M260.31 0 C260.31 27.04, 260.31 54.07, 260.31 114.08 M260.31 114.08 C176.8 114.08, 93.28 114.08, 0 114.08 M260.31 114.08 C179.8 114.08, 99.28 114.08, 0 114.08 M0 114.08 C0 70.06, 0 26.03, 0 0 M0 114.08 C0 82.22, 0 50.36, 0 0" stroke="#000000" stroke-width="1" fill="none"></path></g><g transform="translate(91.31039428710938 54.58174133300781) rotate(0 48 11)"><text x="48" y="17" font-family="Helvetica, Segoe UI Emoji" font-size="16px" fill="#000000" text-anchor="middle" style="white-space: pre;" direction="ltr">内核地址空间</text></g><g stroke-linecap="round" transform="translate(10.06976318359375 124.54632568359375) rotate(0 130.53857421875 31.943511962890625)"><path d="M0 0 C60.43 0, 120.86 0, 261.08 0 M0 0 C95.8 0, 191.61 0, 261.08 0 M261.08 0 C261.08 14.17, 261.08 28.34, 261.08 63.89 M261.08 0 C261.08 25.06, 261.08 50.13, 261.08 63.89 M261.08 63.89 C174.68 63.89, 88.29 63.89, 0 63.89 M261.08 63.89 C172.17 63.89, 83.26 63.89, 0 63.89 M0 63.89 C0 49.99, 0 36.1, 0 0 M0 63.89 C0 47.59, 0 31.3, 0 0" stroke="#000000" stroke-width="1" fill="none"></path></g><g transform="translate(52.60833740234375 145.48983764648438) rotate(0 88 11)"><text x="88" y="17" font-family="Helvetica, Segoe UI Emoji" font-size="16px" fill="#000000" text-anchor="middle" style="white-space: pre;" direction="ltr">程序入口参数、环境变量</text></g><g stroke-linecap="round" transform="translate(10.125244140625 188.55474853515625) rotate(0 130.89956665039062 65.02145385742188)"><path d="M0 0 C53.43 0, 106.85 0, 261.8 0 M0 0 C78.62 0, 157.25 0, 261.8 0 M261.8 0 C261.8 29.24, 261.8 58.47, 261.8 130.04 M261.8 0 C261.8 44.57, 261.8 89.14, 261.8 130.04 M261.8 130.04 C161.64 130.04, 61.47 130.04, 0 130.04 M261.8 130.04 C203.9 130.04, 146.01 130.04, 0 130.04 M0 130.04 C0 86.79, 0 43.54, 0 0 M0 130.04 C0 89.24, 0 48.43, 0 0" stroke="#000000" stroke-width="1" fill="none"></path></g><g stroke-linecap="round" transform="translate(10.33197021484375 318.61553955078125) rotate(0 131.18212890625 44.195404052734375)"><path d="M0 0 C55.57 0, 111.13 0, 262.36 0 M0 0 C102.46 0, 204.92 0, 262.36 0 M262.36 0 C262.36 31.15, 262.36 62.3, 262.36 88.39 M262.36 0 C262.36 20.71, 262.36 41.42, 262.36 88.39 M262.36 88.39 C195.13 88.39, 127.89 88.39, 0 88.39 M262.36 88.39 C166.37 88.39, 70.37 88.39, 0 88.39 M0 88.39 C0 61.63, 0 34.87, 0 0 M0 88.39 C0 54.63, 0 20.87, 0 0" stroke="#000000" stroke-width="1" fill="none"></path></g><g transform="translate(128.01409912109375 353.8109436035156) rotate(0 13.5 9)"><text x="13.5" y="14" font-family="Helvetica, Segoe UI Emoji" font-size="16px" fill="#000000" text-anchor="middle" style="white-space: pre;" direction="ltr">......</text></g><g stroke-linecap="round" transform="translate(10.66339111328125 406.67706298828125) rotate(0 131.7159423828125 73.552001953125)"><path d="M0 0 C75.66 0, 151.32 0, 263.43 0 M0 0 C98.29 0, 196.58 0, 263.43 0 M263.43 0 C263.43 40.05, 263.43 80.11, 263.43 147.1 M263.43 0 C263.43 57.45, 263.43 114.89, 263.43 147.1 M263.43 147.1 C173.46 147.1, 83.49 147.1, 0 147.1 M263.43 147.1 C190.27 147.1, 117.11 147.1, 0 147.1 M0 147.1 C0 108.98, 0 70.86, 0 0 M0 147.1 C0 115.43, 0 83.75, 0 0" stroke="#000000" stroke-width="1" fill="none"></path></g><g stroke-linecap="round" transform="translate(10.95074462890625 553.8106689453125) rotate(0 132.04766845703125 29.8065185546875)"><path d="M0 0 C68.17 0, 136.34 0, 264.1 0 M0 0 C85.06 0, 170.12 0, 264.1 0 M264.1 0 C264.1 21.01, 264.1 42.01, 264.1 59.61 M264.1 0 C264.1 22.36, 264.1 44.73, 264.1 59.61 M264.1 59.61 C191.17 59.61, 118.25 59.61, 0 59.61 M264.1 59.61 C207.08 59.61, 150.07 59.61, 0 59.61 M0 59.61 C0 46.79, 0 33.98, 0 0 M0 59.61 C0 38.48, 0 17.34, 0 0" stroke="#000000" stroke-width="1" fill="none"></path></g><g stroke-linecap="round" transform="translate(11.1409912109375 613.61083984375) rotate(0 132.04766845703125 29.8065185546875)"><path d="M0 0 C100.07 0, 200.14 0, 264.1 0 M0 0 C76.11 0, 152.22 0, 264.1 0 M264.1 0 C264.1 19.06, 264.1 38.12, 264.1 59.61 M264.1 0 C264.1 12.02, 264.1 24.05, 264.1 59.61 M264.1 59.61 C166.37 59.61, 68.65 59.61, 0 59.61 M264.1 59.61 C166.66 59.61, 69.22 59.61, 0 59.61 M0 59.61 C0 37.78, 0 15.96, 0 0 M0 59.61 C0 43.7, 0 27.78, 0 0" stroke="#000000" stroke-width="1" fill="none"></path></g><g stroke-linecap="round" transform="translate(11.89837646484375 673.7142944335938) rotate(0 132.04766845703125 29.8065185546875)"><path d="M0 0 C64.12 0, 128.23 0, 264.1 0 M0 0 C83.74 0, 167.47 0, 264.1 0 M264.1 0 C264.1 19.63, 264.1 39.27, 264.1 59.61 M264.1 0 C264.1 22.47, 264.1 44.95, 264.1 59.61 M264.1 59.61 C159.88 59.61, 55.67 59.61, 0 59.61 M264.1 59.61 C161.6 59.61, 59.1 59.61, 0 59.61 M0 59.61 C0 38.26, 0 16.91, 0 0 M0 59.61 C0 44.23, 0 28.86, 0 0" stroke="#000000" stroke-width="1" fill="none"></path></g><g transform="translate(14.40130615234375 192.8846435546875) rotate(0 8 11)"><text x="0" y="17" font-family="Helvetica, Segoe UI Emoji" font-size="16px" fill="#000000" text-anchor="start" style="white-space: pre;" direction="ltr">栈</text></g><g transform="translate(15.2579345703125 528.2760620117188) rotate(0 8 11)"><text x="0" y="17" font-family="Helvetica, Segoe UI Emoji" font-size="16px" fill="#000000" text-anchor="start" style="white-space: pre;" direction="ltr">堆</text></g><g transform="translate(118.9984130859375 573.6171875) rotate(0 24 11)"><text x="24" y="17" font-family="Helvetica, Segoe UI Emoji" font-size="16px" fill="#000000" text-anchor="middle" style="white-space: pre;" direction="ltr">数据段</text></g><g transform="translate(119.18865966796875 633.3396606445312) rotate(0 24 11)"><text x="24" y="17" font-family="Helvetica, Segoe UI Emoji" font-size="16px" fill="#000000" text-anchor="middle" style="white-space: pre;" direction="ltr">代码段</text></g><g transform="translate(119.790771484375 693.4431762695312) rotate(0 24 11)"><text x="24" y="17" font-family="Helvetica, Segoe UI Emoji" font-size="16px" fill="#000000" text-anchor="middle" style="white-space: pre;" direction="ltr">保留区</text></g><g stroke-linecap="round"><g transform="translate(140.09625244140625 195.44049072265625) rotate(0 1.339111328125 49.85581970214844)"><path d="M0 0 C0.45 16.62, 2.23 83.09, 2.68 99.71 M0 0 C0.45 16.62, 2.23 83.09, 2.68 99.71" stroke="#000000" stroke-width="1" fill="none"></path></g><g transform="translate(140.09625244140625 195.44049072265625) rotate(0 1.339111328125 49.85581970214844)"><path d="M-8.34 71.81 C-4.01 82.75, 0.31 93.7, 2.68 99.71 M-8.34 71.81 C-4.69 81.04, -1.05 90.27, 2.68 99.71" stroke="#000000" stroke-width="1" fill="none"></path></g><g transform="translate(140.09625244140625 195.44049072265625) rotate(0 1.339111328125 49.85581970214844)"><path d="M12.18 71.26 C8.45 82.42, 4.72 93.58, 2.68 99.71 M12.18 71.26 C9.03 80.67, 5.89 90.09, 2.68 99.71" stroke="#000000" stroke-width="1" fill="none"></path></g></g><g stroke-linecap="round"><g transform="translate(141.8394752843177 543.4668720763744) rotate(0 -0.2535389116901001 -47.33707373349972)"><path d="M0 0 C-0.08 -15.78, -0.42 -78.9, -0.51 -94.67 M0 0 C-0.08 -15.78, -0.42 -78.9, -0.51 -94.67" stroke="#000000" stroke-width="1" fill="none"></path></g><g transform="translate(141.8394752843177 543.4668720763744) rotate(0 -0.2535389116901001 -47.33707373349972)"><path d="M9.9 -66.54 C6.02 -77.02, 2.15 -87.51, -0.51 -94.67 M9.9 -66.54 C5.76 -77.73, 1.62 -88.93, -0.51 -94.67" stroke="#000000" stroke-width="1" fill="none"></path></g><g transform="translate(141.8394752843177 543.4668720763744) rotate(0 -0.2535389116901001 -47.33707373349972)"><path d="M-10.62 -66.43 C-6.85 -76.95, -3.08 -87.48, -0.51 -94.67 M-10.62 -66.43 C-6.59 -77.67, -2.57 -88.9, -0.51 -94.67" stroke="#000000" stroke-width="1" fill="none"></path></g></g></svg>