<svg version="1.1" xmlns="http://www.w3.org/2000/svg" viewBox="0 0 532.4725036621094 353.78013610839844" width="1597.4175109863281" height="1061.3404083251953">
  <!-- svg-source:excalidraw -->
  
  <defs>
    <style>
      @font-face {
        font-family: "Virgil";
        src: url("https://excalidraw.com/Virgil.woff2");
      }
      @font-face {
        font-family: "Cascadia";
        src: url("https://excalidraw.com/Cascadia.woff2");
      }
    </style>
  </defs>
  <rect x="0" y="0" width="532.4725036621094" height="353.78013610839844" fill="#ffffff"></rect><g stroke-linecap="round" transform="translate(10 10.934326171875) rotate(0 102.97834777832031 150.11936950683594)"><path d="M0 0 C79.17 0, 158.35 0, 205.96 0 M205.96 0 C205.96 69.16, 205.96 138.31, 205.96 300.24 M205.96 300.24 C142.37 300.24, 78.78 300.24, 0 300.24 M0 300.24 C0 212.97, 0 125.69, 0 0" stroke="#f1f3f5" stroke-width="1.5" fill="none" stroke-dasharray="8 9"></path></g><g stroke-linecap="round" transform="translate(316.51580810546875 10) rotate(0 102.97834777832031 150.11936950683594)"><path d="M0 0 C63.44 0, 126.87 0, 205.96 0 M205.96 0 C205.96 75.87, 205.96 151.73, 205.96 300.24 M205.96 300.24 C148.93 300.24, 91.9 300.24, 0 300.24 M0 300.24 C0 202.95, 0 105.67, 0 0" stroke="#f1f3f5" stroke-width="1.5" fill="none" stroke-dasharray="8 9"></path></g><g transform="translate(35.98762512207031 98.29533386230446) rotate(0 75.5 54)"><text x="0" y="14" font-family="Helvetica, Segoe UI Emoji" font-size="16px" fill="#000000" text-anchor="start" style="white-space: pre;" direction="ltr">co = co_create(func);</text><text x="0" y="32" font-family="Helvetica, Segoe UI Emoji" font-size="16px" fill="#000000" text-anchor="start" style="white-space: pre;" direction="ltr"></text><text x="0" y="50" font-family="Helvetica, Segoe UI Emoji" font-size="16px" fill="#000000" text-anchor="start" style="white-space: pre;" direction="ltr"></text><text x="0" y="68" font-family="Helvetica, Segoe UI Emoji" font-size="16px" fill="#000000" text-anchor="start" style="white-space: pre;" direction="ltr"></text><text x="0" y="86" font-family="Helvetica, Segoe UI Emoji" font-size="16px" fill="#000000" text-anchor="start" style="white-space: pre;" direction="ltr">// ...</text><text x="0" y="104" font-family="Helvetica, Segoe UI Emoji" font-size="16px" fill="#000000" text-anchor="start" style="white-space: pre;" direction="ltr"></text></g><g transform="translate(375.9907989501953 113.85606384277321) rotate(0 34 45)"><text x="0" y="14" font-family="Helvetica, Segoe UI Emoji" font-size="16px" fill="#000000" text-anchor="start" style="white-space: pre;" direction="ltr">fn func() {</text><text x="0" y="32" font-family="Helvetica, Segoe UI Emoji" font-size="16px" fill="#000000" text-anchor="start" style="white-space: pre;" direction="ltr">    // ...</text><text x="0" y="50" font-family="Helvetica, Segoe UI Emoji" font-size="16px" fill="#000000" text-anchor="start" style="white-space: pre;" direction="ltr">    </text><text x="0" y="68" font-family="Helvetica, Segoe UI Emoji" font-size="16px" fill="#000000" text-anchor="start" style="white-space: pre;" direction="ltr">    // ...</text><text x="0" y="86" font-family="Helvetica, Segoe UI Emoji" font-size="16px" fill="#000000" text-anchor="start" style="white-space: pre;" direction="ltr">}</text></g><g transform="translate(393.13172912597656 149.28739929199196) rotate(0 37 9)"><text x="0" y="14" font-family="Helvetica, Segoe UI Emoji" font-size="16px" fill="#e67700" text-anchor="start" style="white-space: pre;" direction="ltr">co_yield();</text></g><g transform="translate(37.46531677246094 197.66105651855446) rotate(0 55.5 9)"><text x="0" y="14" font-family="Helvetica, Segoe UI Emoji" font-size="16px" fill="#1864ab" text-anchor="start" style="white-space: pre;" direction="ltr">co_resume(co);</text></g><g transform="translate(36.19758605957031 146.5258636474607) rotate(0 55.5 9)"><text x="0" y="14" font-family="Helvetica, Segoe UI Emoji" font-size="16px" fill="#1864ab" text-anchor="start" style="white-space: pre;" direction="ltr">co_resume(co);</text></g><g stroke-linecap="round"><g transform="translate(153.27735900878906 153.58757019042946) rotate(0 109.73794555664062 -14.443878173828125)"><path d="M0 0 C36.58 -4.81, 182.9 -24.07, 219.48 -28.89" stroke="#1864ab" stroke-width="1.5" fill="none" stroke-dasharray="8 9"></path></g><g transform="translate(153.27735900878906 153.58757019042946) rotate(0 109.73794555664062 -14.443878173828125)"><path d="M192.87 -15.04 C203.38 -20.51, 213.9 -25.98, 219.48 -28.89" stroke="#1864ab" stroke-width="1.5" fill="none"></path></g><g transform="translate(153.27735900878906 153.58757019042946) rotate(0 109.73794555664062 -14.443878173828125)"><path d="M190.19 -35.38 C201.76 -32.82, 213.34 -30.25, 219.48 -28.89" stroke="#1864ab" stroke-width="1.5" fill="none"></path></g></g><g stroke-linecap="round"><g transform="translate(391.0598907470703 158.27262878417946) rotate(0 -117.54083251953125 1.24609375)"><path d="M0 0 C-39.18 0.42, -195.9 2.08, -235.08 2.49" stroke="#e67700" stroke-width="1.5" fill="none" stroke-dasharray="8 9"></path></g><g transform="translate(391.0598907470703 158.27262878417946) rotate(0 -117.54083251953125 1.24609375)"><path d="M-207 -8.07 C-214.97 -5.07, -222.94 -2.07, -235.08 2.49" stroke="#e67700" stroke-width="1.5" fill="none"></path></g><g transform="translate(391.0598907470703 158.27262878417946) rotate(0 -117.54083251953125 1.24609375)"><path d="M-206.78 12.45 C-214.82 9.63, -222.85 6.8, -235.08 2.49" stroke="#e67700" stroke-width="1.5" fill="none"></path></g></g><g stroke-linecap="round"><g transform="translate(155.6804962158203 209.57817077636696) rotate(0 117.06402587890625 -21.343963623046875)"><path d="M0 0 C39.02 -7.11, 195.11 -35.57, 234.13 -42.69" stroke="#1864ab" stroke-width="1.5" fill="none" stroke-dasharray="8 9"></path></g><g transform="translate(155.6804962158203 209.57817077636696) rotate(0 117.06402587890625 -21.343963623046875)"><path d="M208.23 -27.54 C215.45 -31.76, 222.67 -35.98, 234.13 -42.69" stroke="#1864ab" stroke-width="1.5" fill="none"></path></g><g transform="translate(155.6804962158203 209.57817077636696) rotate(0 117.06402587890625 -21.343963623046875)"><path d="M204.55 -47.73 C212.8 -46.32, 221.04 -44.92, 234.13 -42.69" stroke="#1864ab" stroke-width="1.5" fill="none"></path></g></g><g stroke-linecap="round"><g transform="translate(375.74049377441406 197.84831237792946) rotate(0 -109.56561279296875 8.564697265625)"><path d="M0 0 C-36.52 2.85, -182.61 14.27, -219.13 17.13" stroke="#e67700" stroke-width="1.5" fill="none" stroke-dasharray="8 9"></path></g><g transform="translate(375.74049377441406 197.84831237792946) rotate(0 -109.56561279296875 8.564697265625)"><path d="M-191.83 4.7 C-201.88 9.28, -211.93 13.85, -219.13 17.13" stroke="#e67700" stroke-width="1.5" fill="none"></path></g><g transform="translate(375.74049377441406 197.84831237792946) rotate(0 -109.56561279296875 8.564697265625)"><path d="M-190.23 25.16 C-200.87 22.2, -211.51 19.25, -219.13 17.13" stroke="#e67700" stroke-width="1.5" fill="none"></path></g></g><g transform="translate(254.34498596191406 112.52970886230446) rotate(0 8 9.5)"><text x="0" y="15" font-family="Helvetica, Segoe UI Emoji" font-size="16px" fill="#1864ab" text-anchor="start" style="white-space: pre;" direction="ltr">1⃣️</text></g><g transform="translate(254.9318389892578 146.8808441162107) rotate(0 8 9.5)"><text x="0" y="15" font-family="Helvetica, Segoe UI Emoji" font-size="16px" fill="#e67700" text-anchor="start" style="white-space: pre;" direction="ltr">2⃣️</text></g><g transform="translate(255.66053771972656 170.63456726074196) rotate(0 8 9.5)"><text x="0" y="15" font-family="Helvetica, Segoe UI Emoji" font-size="16px" fill="#1864ab" text-anchor="start" style="white-space: pre;" direction="ltr">3⃣️</text></g><g transform="translate(255.8296661376953 202.9296722412107) rotate(0 8 9.5)"><text x="0" y="15" font-family="Helvetica, Segoe UI Emoji" font-size="16px" fill="#e67700" text-anchor="start" style="white-space: pre;" direction="ltr">4⃣️</text></g><g transform="translate(210.50001525878906 321.78013610839844) rotate(0 56 11)"><text x="0" y="17" font-family="Helvetica, Segoe UI Emoji" font-size="16px" fill="#000000" text-anchor="start" style="white-space: pre;" direction="ltr">非对称协程调用</text></g></svg>