<svg version="1.1" xmlns="http://www.w3.org/2000/svg" viewBox="0 0 536.6110076904297 361.9126281738281" width="536.6110076904297" height="361.9126281738281">
  <!-- svg-source:excalidraw -->
  
  <defs>
    <style>
      @font-face {
        font-family: "Virgil";
        src: url("https://excalidraw.com/Virgil.woff2");
      }
      @font-face {
        font-family: "Cascadia";
        src: url("https://excalidraw.com/Cascadia.woff2");
      }
    </style>
  </defs>
  <rect x="0" y="0" width="536.6110076904297" height="361.9126281738281" fill="#ffffff"/><g stroke-linecap="round" transform="translate(187.5592041015625 282.6426544189453) rotate(0 15.731414794921875 14.426589965820312)"><path d="M0 0 L31.46 0 L31.46 28.85 L0 28.85" stroke="none" stroke-width="0" fill="#fab005"/><path d="M0 0 C6.98 0, 13.97 0, 31.46 0 M0 0 C6.65 0, 13.31 0, 31.46 0 M31.46 0 C31.46 10.81, 31.46 21.63, 31.46 28.85 M31.46 0 C31.46 8.35, 31.46 16.71, 31.46 28.85 M31.46 28.85 C20.1 28.85, 8.74 28.85, 0 28.85 M31.46 28.85 C20.08 28.85, 8.69 28.85, 0 28.85 M0 28.85 C0 21.35, 0 13.86, 0 0 M0 28.85 C0 19.91, 0 10.97, 0 0" stroke="#000000" stroke-width="1" fill="none"/></g><g stroke-linecap="round" transform="translate(218.857177734375 282.6426544189453) rotate(0 15.731414794921875 14.426589965820312)"><path d="M0 0 L31.46 0 L31.46 28.85 L0 28.85" stroke="none" stroke-width="0" fill="#fab005"/><path d="M0 0 C7.07 0, 14.15 0, 31.46 0 M0 0 C9.2 0, 18.39 0, 31.46 0 M31.46 0 C31.46 8.79, 31.46 17.58, 31.46 28.85 M31.46 0 C31.46 8.18, 31.46 16.35, 31.46 28.85 M31.46 28.85 C21.36 28.85, 11.26 28.85, 0 28.85 M31.46 28.85 C24.62 28.85, 17.78 28.85, 0 28.85 M0 28.85 C0 19.13, 0 9.4, 0 0 M0 28.85 C0 17.99, 0 7.12, 0 0" stroke="#000000" stroke-width="1" fill="none"/></g><g stroke-linecap="round" transform="translate(250.07855224609375 282.6426544189453) rotate(0 15.731414794921875 14.426589965820312)"><path d="M0 0 L31.46 0 L31.46 28.85 L0 28.85" stroke="none" stroke-width="0" fill="#fab005"/><path d="M0 0 C7.18 0, 14.35 0, 31.46 0 M0 0 C6.38 0, 12.76 0, 31.46 0 M31.46 0 C31.46 5.81, 31.46 11.63, 31.46 28.85 M31.46 0 C31.46 6.64, 31.46 13.27, 31.46 28.85 M31.46 28.85 C20.23 28.85, 9 28.85, 0 28.85 M31.46 28.85 C23.14 28.85, 14.82 28.85, 0 28.85 M0 28.85 C0 20.38, 0 11.92, 0 0 M0 28.85 C0 21.81, 0 14.77, 0 0" stroke="#000000" stroke-width="1" fill="none"/></g><g stroke-linecap="round" transform="translate(281.0254211425781 282.6526641845703) rotate(0 15.731414794921875 14.426589965820312)"><path d="M0 0 L31.46 0 L31.46 28.85 L0 28.85" stroke="none" stroke-width="0" fill="#fab005"/><path d="M0 0 C9.74 0, 19.49 0, 31.46 0 M0 0 C8.9 0, 17.81 0, 31.46 0 M31.46 0 C31.46 6.77, 31.46 13.55, 31.46 28.85 M31.46 0 C31.46 7.27, 31.46 14.54, 31.46 28.85 M31.46 28.85 C19.03 28.85, 6.61 28.85, 0 28.85 M31.46 28.85 C20.5 28.85, 9.54 28.85, 0 28.85 M0 28.85 C0 18.22, 0 7.59, 0 0 M0 28.85 C0 19.72, 0 10.58, 0 0" stroke="#000000" stroke-width="1" fill="none"/></g><g stroke-linecap="round" transform="translate(312.3233947753906 282.6526641845703) rotate(0 15.731414794921875 14.426589965820312)"><path d="M0 0 L31.46 0 L31.46 28.85 L0 28.85" stroke="none" stroke-width="0" fill="#fab005"/><path d="M0 0 C9.82 0, 19.63 0, 31.46 0 M0 0 C10.46 0, 20.92 0, 31.46 0 M31.46 0 C31.46 8.49, 31.46 16.99, 31.46 28.85 M31.46 0 C31.46 11.21, 31.46 22.42, 31.46 28.85 M31.46 28.85 C19.75 28.85, 8.05 28.85, 0 28.85 M31.46 28.85 C22.02 28.85, 12.57 28.85, 0 28.85 M0 28.85 C0 17.41, 0 5.96, 0 0 M0 28.85 C0 17.35, 0 5.84, 0 0" stroke="#000000" stroke-width="1" fill="none"/></g><g stroke-linecap="round" transform="translate(343.5447692871094 282.6526641845703) rotate(0 15.731414794921875 14.426589965820312)"><path d="M0 0 L31.46 0 L31.46 28.85 L0 28.85" stroke="none" stroke-width="0" fill="#fab005"/><path d="M0 0 C9.4 0, 18.8 0, 31.46 0 M0 0 C7.21 0, 14.43 0, 31.46 0 M31.46 0 C31.46 8, 31.46 16, 31.46 28.85 M31.46 0 C31.46 7.75, 31.46 15.5, 31.46 28.85 M31.46 28.85 C23.99 28.85, 16.52 28.85, 0 28.85 M31.46 28.85 C20.82 28.85, 10.18 28.85, 0 28.85 M0 28.85 C0 20.14, 0 11.42, 0 0 M0 28.85 C0 22.67, 0 16.49, 0 0" stroke="#000000" stroke-width="1" fill="none"/></g><g stroke-linecap="round" transform="translate(374.16387939453125 282.5230255126953) rotate(0 15.731414794921875 14.426589965820312)"><path d="M0 0 L31.46 0 L31.46 28.85 L0 28.85" stroke="none" stroke-width="0" fill="#fab005"/><path d="M0 0 C10.94 0, 21.88 0, 31.46 0 M0 0 C9.81 0, 19.61 0, 31.46 0 M31.46 0 C31.46 7.39, 31.46 14.78, 31.46 28.85 M31.46 0 C31.46 6.33, 31.46 12.66, 31.46 28.85 M31.46 28.85 C24.22 28.85, 16.99 28.85, 0 28.85 M31.46 28.85 C22.02 28.85, 12.57 28.85, 0 28.85 M0 28.85 C0 22.38, 0 15.91, 0 0 M0 28.85 C0 22.73, 0 16.61, 0 0" stroke="#000000" stroke-width="1" fill="none"/></g><g transform="translate(198.79061889648438 284.5692443847656) rotate(0 5.5 11.5)"><text x="5.5" y="18" font-family="Helvetica, Segoe UI Emoji" font-size="20px" fill="#000000" text-anchor="middle" style="white-space: pre;" direction="ltr">n</text></g><g transform="translate(229.08859252929688 285.5692443847656) rotate(0 5.5 11.5)"><text x="5.5" y="18" font-family="Helvetica, Segoe UI Emoji" font-size="20px" fill="#000000" text-anchor="middle" style="white-space: pre;" direction="ltr">o</text></g><g transform="translate(260.3099670410156 285.5692443847656) rotate(0 5.5 11.5)"><text x="5.5" y="18" font-family="Helvetica, Segoe UI Emoji" font-size="20px" fill="#000000" text-anchor="middle" style="white-space: pre;" direction="ltr">o</text></g><g transform="translate(291.2568359375 285.5792541503906) rotate(0 5.5 11.5)"><text x="5.5" y="18" font-family="Helvetica, Segoe UI Emoji" font-size="20px" fill="#000000" text-anchor="middle" style="white-space: pre;" direction="ltr">d</text></g><g transform="translate(326.0548095703125 285.5792541503906) rotate(0 2 11.5)"><text x="2" y="18" font-family="Helvetica, Segoe UI Emoji" font-size="20px" fill="#000000" text-anchor="middle" style="white-space: pre;" direction="ltr">l</text></g><g transform="translate(353.77618408203125 285.5792541503906) rotate(0 5.5 11.5)"><text x="5.5" y="18" font-family="Helvetica, Segoe UI Emoji" font-size="20px" fill="#000000" text-anchor="middle" style="white-space: pre;" direction="ltr">e</text></g><g transform="translate(385.0505676269531 285.8379821777344) rotate(0 5 11.5)"><text x="5" y="18" font-family="Helvetica, Segoe UI Emoji" font-size="20px" fill="#000000" text-anchor="middle" style="white-space: pre;" direction="ltr">s</text></g><g stroke-linecap="round" transform="translate(187.48153686523438 49.82740783691406) rotate(0 15.731414794921875 14.426589965820312)"><path d="M0 0 C10.32 0, 20.63 0, 31.46 0 M0 0 C8.9 0, 17.79 0, 31.46 0 M31.46 0 C31.46 5.88, 31.46 11.76, 31.46 28.85 M31.46 0 C31.46 8.44, 31.46 16.88, 31.46 28.85 M31.46 28.85 C24.11 28.85, 16.75 28.85, 0 28.85 M31.46 28.85 C19.51 28.85, 7.55 28.85, 0 28.85 M0 28.85 C0 22.06, 0 15.27, 0 0 M0 28.85 C0 21.81, 0 14.76, 0 0" stroke="#000000" stroke-width="1" fill="none"/></g><g stroke-linecap="round" transform="translate(218.85714721679688 49.82740783691406) rotate(0 15.731414794921875 14.426589965820312)"><path d="M0 0 C7.85 0, 15.71 0, 31.46 0 M0 0 C10.02 0, 20.03 0, 31.46 0 M31.46 0 C31.46 6.73, 31.46 13.45, 31.46 28.85 M31.46 0 C31.46 9.25, 31.46 18.51, 31.46 28.85 M31.46 28.85 C21.7 28.85, 11.93 28.85, 0 28.85 M31.46 28.85 C22.17 28.85, 12.88 28.85, 0 28.85 M0 28.85 C0 18.04, 0 7.23, 0 0 M0 28.85 C0 21.99, 0 15.13, 0 0" stroke="#000000" stroke-width="1" fill="none"/></g><g stroke-linecap="round" transform="translate(250.07852172851562 49.82740783691406) rotate(0 15.731414794921875 14.426589965820312)"><path d="M0 0 C0 0, 0 0, 0 0 M0 0 C0 0, 0 0, 0 0 M-0.26 6.4 C1.4 4.49, 3.05 2.58, 4.99 0.36 M-0.26 6.4 C0.97 4.98, 2.2 3.57, 4.99 0.36 M0.13 12.04 C4.29 7.26, 8.45 2.48, 10.63 -0.03 M0.13 12.04 C2.33 9.51, 4.53 6.98, 10.63 -0.03 M-0.13 18.44 C3.32 14.48, 6.76 10.51, 15.62 0.33 M-0.13 18.44 C4.45 13.18, 9.02 7.92, 15.62 0.33 M0.27 24.08 C6.03 17.46, 11.79 10.83, 21.26 -0.07 M0.27 24.08 C8.48 14.63, 16.7 5.18, 21.26 -0.07 M0.66 29.72 C10.71 18.16, 20.76 6.6, 26.25 0.29 M0.66 29.72 C7.77 21.54, 14.89 13.36, 26.25 0.29 M6.3 29.33 C16.15 18, 26.01 6.67, 31.89 -0.1 M6.3 29.33 C13.41 21.15, 20.53 12.97, 31.89 -0.1 M11.29 29.69 C19.07 20.74, 26.86 11.78, 31.63 6.29 M11.29 29.69 C17.18 22.92, 23.07 16.14, 31.63 6.29 M16.93 29.3 C20.97 24.65, 25.01 20.01, 31.37 12.69 M16.93 29.3 C21.15 24.45, 25.36 19.6, 31.37 12.69 M21.92 29.66 C24.6 26.58, 27.28 23.5, 31.76 18.34 M21.92 29.66 C25.4 25.65, 28.88 21.65, 31.76 18.34 M27.56 29.26 C28.74 27.91, 29.92 26.55, 31.5 24.73 M27.56 29.26 C28.91 27.71, 30.26 26.16, 31.5 24.73" stroke="#868e96" stroke-width="0.5" fill="none"/><path d="M0 0 C11.78 0, 23.55 0, 31.46 0 M0 0 C7.87 0, 15.74 0, 31.46 0 M31.46 0 C31.46 6.93, 31.46 13.86, 31.46 28.85 M31.46 0 C31.46 6.54, 31.46 13.09, 31.46 28.85 M31.46 28.85 C22.81 28.85, 14.15 28.85, 0 28.85 M31.46 28.85 C22.12 28.85, 12.78 28.85, 0 28.85 M0 28.85 C0 17.93, 0 7.01, 0 0 M0 28.85 C0 21.54, 0 14.23, 0 0" stroke="#000000" stroke-width="1" fill="none"/></g><g stroke-linecap="round" transform="translate(196.97958374023438 63.79566955566406) rotate(0 5.523956298828125 5.5540924072265625)"><path d="M9.07 1.3 C9.98 2.06, 10.76 3.42, 10.96 4.59 C11.17 5.76, 10.9 7.3, 10.31 8.33 C9.72 9.36, 8.53 10.37, 7.41 10.77 C6.3 11.18, 4.75 11.18, 3.63 10.77 C2.52 10.37, 1.33 9.36, 0.74 8.33 C0.15 7.3, -0.12 5.76, 0.08 4.59 C0.29 3.42, 1.07 2.06, 1.97 1.3 C2.88 0.53, 4.34 0, 5.52 0 C6.71 0, 8.17 0.53, 9.07 1.3" stroke="none" stroke-width="0" fill="#fab005"/><path d="M9.07 1.3 C9.98 2.06, 10.76 3.42, 10.96 4.59 C11.17 5.76, 10.9 7.3, 10.31 8.33 C9.72 9.36, 8.53 10.37, 7.41 10.77 C6.3 11.18, 4.75 11.18, 3.63 10.77 C2.52 10.37, 1.33 9.36, 0.74 8.33 C0.15 7.3, -0.12 5.76, 0.08 4.59 C0.29 3.42, 1.07 2.06, 1.97 1.3 C2.88 0.53, 4.34 0, 5.52 0 C6.71 0, 8.17 0.53, 9.07 1.3" stroke="#e67700" stroke-width="1" fill="none"/></g><g transform="translate(225.4664306640625 91.4217529296875) rotate(43.8692498728171 22 9)"><text x="0" y="14" font-family="Helvetica, Segoe UI Emoji" font-size="16px" fill="#000000" text-anchor="start" style="white-space: pre;" direction="ltr">length</text></g><g transform="translate(230.16622924804688 55.253997802734375) rotate(0 4.5 9)"><text x="4.5" y="14" font-family="Helvetica, Segoe UI Emoji" font-size="16px" fill="#000000" text-anchor="middle" style="white-space: pre;" direction="ltr">7</text></g><g transform="translate(52 277.8884582519531) rotate(0 43.5 9)"><text x="0" y="14" font-family="Helvetica, Segoe UI Emoji" font-size="16px" fill="#000000" text-anchor="start" style="white-space: pre;" direction="ltr">preallocated</text></g><g transform="translate(10 301.2398376464844) rotate(0 64.5 9)"><text x="0" y="14" font-family="Helvetica, Segoe UI Emoji" font-size="16px" fill="#000000" text-anchor="start" style="white-space: pre;" direction="ltr">read-only memory</text></g><g stroke-linecap="round" transform="translate(156.479736328125 282.7693634033203) rotate(0 15.731414794921875 14.426589965820312)"><path d="M0 0 C0 0, 0 0, 0 0 M0 0 C0 0, 0 0, 0 0 M-0.26 6.4 C1.21 4.7, 2.68 3.01, 4.99 0.36 M-0.26 6.4 C1.48 4.39, 3.22 2.39, 4.99 0.36 M0.13 12.04 C2.39 9.44, 4.65 6.84, 10.63 -0.03 M0.13 12.04 C2.82 8.95, 5.5 5.86, 10.63 -0.03 M-0.13 18.44 C4.14 13.53, 8.41 8.62, 15.62 0.33 M-0.13 18.44 C5.25 12.25, 10.62 6.07, 15.62 0.33 M0.27 24.08 C7.02 16.31, 13.78 8.53, 21.26 -0.07 M0.27 24.08 C6.36 17.07, 12.46 10.06, 21.26 -0.07 M0.66 29.72 C8.03 21.25, 15.4 12.77, 26.25 0.29 M0.66 29.72 C7.06 22.36, 13.47 14.99, 26.25 0.29 M6.3 29.33 C15.93 18.25, 25.56 7.18, 31.89 -0.1 M6.3 29.33 C14.6 19.78, 22.91 10.23, 31.89 -0.1 M11.29 29.69 C15.79 24.51, 20.29 19.33, 31.63 6.29 M11.29 29.69 C19.03 20.79, 26.77 11.88, 31.63 6.29 M16.93 29.3 C21.63 23.89, 26.33 18.49, 31.37 12.69 M16.93 29.3 C22.14 23.31, 27.35 17.32, 31.37 12.69 M21.92 29.66 C23.89 27.39, 25.86 25.12, 31.76 18.34 M21.92 29.66 C24.78 26.37, 27.64 23.08, 31.76 18.34 M27.56 29.26 C28.37 28.33, 29.18 27.4, 31.5 24.73 M27.56 29.26 C29.09 27.51, 30.62 25.75, 31.5 24.73" stroke="#868e96" stroke-width="0.5" fill="none"/><path d="M0 0 C10.95 0, 21.9 0, 31.46 0 M0 0 C6.69 0, 13.39 0, 31.46 0 M31.46 0 C31.46 6.18, 31.46 12.37, 31.46 28.85 M31.46 0 C31.46 8.7, 31.46 17.39, 31.46 28.85 M31.46 28.85 C21.94 28.85, 12.42 28.85, 0 28.85 M31.46 28.85 C21.87 28.85, 12.28 28.85, 0 28.85 M0 28.85 C0 18.31, 0 7.76, 0 0 M0 28.85 C0 22.07, 0 15.28, 0 0" stroke="#000000" stroke-width="1" fill="none"/></g><g stroke-linecap="round" transform="translate(404.8367919921875 282.2060089111328) rotate(0 15.731414794921875 14.426589965820312)"><path d="M0 0 C0 0, 0 0, 0 0 M0 0 C0 0, 0 0, 0 0 M-0.26 6.4 C1.8 4.02, 3.87 1.65, 4.99 0.36 M-0.26 6.4 C1.44 4.45, 3.13 2.49, 4.99 0.36 M0.13 12.04 C4.06 7.53, 7.98 3.01, 10.63 -0.03 M0.13 12.04 C3.02 8.72, 5.91 5.4, 10.63 -0.03 M-0.13 18.44 C3.49 14.27, 7.11 10.11, 15.62 0.33 M-0.13 18.44 C5.02 12.52, 10.16 6.61, 15.62 0.33 M0.27 24.08 C7.66 15.58, 15.04 7.08, 21.26 -0.07 M0.27 24.08 C8.07 15.11, 15.87 6.13, 21.26 -0.07 M0.66 29.72 C9.25 19.84, 17.84 9.96, 26.25 0.29 M0.66 29.72 C6.8 22.66, 12.94 15.6, 26.25 0.29 M6.3 29.33 C14.58 19.81, 22.85 10.3, 31.89 -0.1 M6.3 29.33 C14.16 20.29, 22.02 11.25, 31.89 -0.1 M11.29 29.69 C16.24 23.99, 21.2 18.29, 31.63 6.29 M11.29 29.69 C15.45 24.9, 19.62 20.11, 31.63 6.29 M16.93 29.3 C22.03 23.44, 27.12 17.58, 31.37 12.69 M16.93 29.3 C20.23 25.5, 23.53 21.71, 31.37 12.69 M21.92 29.66 C24.63 26.54, 27.34 23.42, 31.76 18.34 M21.92 29.66 C24.37 26.84, 26.81 24.03, 31.76 18.34 M27.56 29.26 C28.92 27.7, 30.28 26.14, 31.5 24.73 M27.56 29.26 C28.82 27.82, 30.07 26.38, 31.5 24.73" stroke="#868e96" stroke-width="0.5" fill="none"/><path d="M0 0 C7.4 0, 14.81 0, 31.46 0 M0 0 C12.1 0, 24.2 0, 31.46 0 M31.46 0 C31.46 9.84, 31.46 19.69, 31.46 28.85 M31.46 0 C31.46 8.92, 31.46 17.84, 31.46 28.85 M31.46 28.85 C20.99 28.85, 10.52 28.85, 0 28.85 M31.46 28.85 C19.23 28.85, 7 28.85, 0 28.85 M0 28.85 C0 17.83, 0 6.81, 0 0 M0 28.85 C0 20.95, 0 13.04, 0 0" stroke="#000000" stroke-width="1" fill="none"/></g><g stroke-linecap="round" transform="translate(156.82025146484375 49.89488220214844) rotate(0 15.731414794921875 14.426589965820312)"><path d="M0 0 C0 0, 0 0, 0 0 M0 0 C0 0, 0 0, 0 0 M-0.26 6.4 C1.02 4.93, 2.3 3.45, 4.99 0.36 M-0.26 6.4 C0.9 5.06, 2.07 3.72, 4.99 0.36 M0.13 12.04 C4.1 7.47, 8.07 2.91, 10.63 -0.03 M0.13 12.04 C3.01 8.73, 5.89 5.42, 10.63 -0.03 M-0.13 18.44 C4.47 13.15, 9.07 7.86, 15.62 0.33 M-0.13 18.44 C3.92 13.78, 7.96 9.13, 15.62 0.33 M0.27 24.08 C8.07 15.11, 15.87 6.13, 21.26 -0.07 M0.27 24.08 C8.12 15.05, 15.97 6.02, 21.26 -0.07 M0.66 29.72 C6.09 23.48, 11.53 17.23, 26.25 0.29 M0.66 29.72 C9.71 19.31, 18.77 8.89, 26.25 0.29 M6.3 29.33 C14.66 19.71, 23.02 10.1, 31.89 -0.1 M6.3 29.33 C16.28 17.85, 26.26 6.38, 31.89 -0.1 M11.29 29.69 C18.51 21.38, 25.73 13.07, 31.63 6.29 M11.29 29.69 C19.04 20.77, 26.8 11.85, 31.63 6.29 M16.93 29.3 C22.33 23.08, 27.73 16.87, 31.37 12.69 M16.93 29.3 C20.87 24.76, 24.81 20.23, 31.37 12.69 M21.92 29.66 C24.94 26.19, 27.95 22.72, 31.76 18.34 M21.92 29.66 C24.84 26.29, 27.77 22.93, 31.76 18.34 M27.56 29.26 C28.47 28.22, 29.38 27.17, 31.5 24.73 M27.56 29.26 C28.8 27.84, 30.03 26.43, 31.5 24.73" stroke="#868e96" stroke-width="0.5" fill="none"/><path d="M0 0 C10.97 0, 21.94 0, 31.46 0 M0 0 C10.97 0, 21.94 0, 31.46 0 M31.46 0 C31.46 9.88, 31.46 19.77, 31.46 28.85 M31.46 0 C31.46 8.82, 31.46 17.64, 31.46 28.85 M31.46 28.85 C22.57 28.85, 13.68 28.85, 0 28.85 M31.46 28.85 C21.56 28.85, 11.65 28.85, 0 28.85 M0 28.85 C0 21.54, 0 14.23, 0 0 M0 28.85 C0 18.23, 0 7.61, 0 0" stroke="#000000" stroke-width="1" fill="none"/></g><g transform="translate(56 54.963623046875) rotate(0 41.5 9)"><text x="0" y="14" font-family="Helvetica, Segoe UI Emoji" font-size="16px" fill="#000000" text-anchor="start" style="white-space: pre;" direction="ltr">stack frame</text></g><g transform="translate(265.4277038574219 315.9126281738281) rotate(0 33 18)"><text x="33" y="14" font-family="Helvetica, Segoe UI Emoji" font-size="16px" fill="#000000" text-anchor="middle" style="white-space: pre;" direction="ltr">str</text><text x="33" y="32" font-family="Helvetica, Segoe UI Emoji" font-size="16px" fill="#000000" text-anchor="middle" style="white-space: pre;" direction="ltr">(unsized)</text></g><g stroke-linecap="round" transform="translate(277.87059020996094 167.41902923583984) rotate(0 15.731414794921875 14.426589965820312)"><path d="M0 0 L31.46 0 L31.46 28.85 L0 28.85" stroke="none" stroke-width="0" fill="#82c91e"/><path d="M0 0 C9.08 0, 18.16 0, 31.46 0 M0 0 C11.23 0, 22.46 0, 31.46 0 M31.46 0 C31.46 5.98, 31.46 11.96, 31.46 28.85 M31.46 0 C31.46 6.21, 31.46 12.43, 31.46 28.85 M31.46 28.85 C24.72 28.85, 17.97 28.85, 0 28.85 M31.46 28.85 C19.18 28.85, 6.9 28.85, 0 28.85 M0 28.85 C0 19.63, 0 10.41, 0 0 M0 28.85 C0 19.9, 0 10.96, 0 0" stroke="#000000" stroke-width="1" fill="none"/></g><g stroke-linecap="round" transform="translate(309.16856384277344 167.41902923583984) rotate(0 15.731414794921875 14.426589965820312)"><path d="M0 0 L31.46 0 L31.46 28.85 L0 28.85" stroke="none" stroke-width="0" fill="#82c91e"/><path d="M0 0 C8.47 0, 16.95 0, 31.46 0 M0 0 C7.6 0, 15.19 0, 31.46 0 M31.46 0 C31.46 7.5, 31.46 15.01, 31.46 28.85 M31.46 0 C31.46 6.25, 31.46 12.49, 31.46 28.85 M31.46 28.85 C19.82 28.85, 8.19 28.85, 0 28.85 M31.46 28.85 C22.28 28.85, 13.11 28.85, 0 28.85 M0 28.85 C0 23, 0 17.15, 0 0 M0 28.85 C0 17.82, 0 6.78, 0 0" stroke="#000000" stroke-width="1" fill="none"/></g><g stroke-linecap="round" transform="translate(340.3899383544922 167.41902923583984) rotate(0 15.731414794921875 14.426589965820312)"><path d="M0 0 L31.46 0 L31.46 28.85 L0 28.85" stroke="none" stroke-width="0" fill="#82c91e"/><path d="M0 0 C9.72 0, 19.44 0, 31.46 0 M0 0 C10.97 0, 21.94 0, 31.46 0 M31.46 0 C31.46 7.13, 31.46 14.26, 31.46 28.85 M31.46 0 C31.46 5.81, 31.46 11.62, 31.46 28.85 M31.46 28.85 C22.94 28.85, 14.41 28.85, 0 28.85 M31.46 28.85 C21.87 28.85, 12.28 28.85, 0 28.85 M0 28.85 C0 18.85, 0 8.85, 0 0 M0 28.85 C0 22.25, 0 15.64, 0 0" stroke="#000000" stroke-width="1" fill="none"/></g><g stroke-linecap="round" transform="translate(371.33680725097656 167.42903900146484) rotate(0 15.731414794921875 14.426589965820312)"><path d="M0 0 L31.46 0 L31.46 28.85 L0 28.85" stroke="none" stroke-width="0" fill="#82c91e"/><path d="M0 0 C11.92 0, 23.85 0, 31.46 0 M0 0 C10.92 0, 21.84 0, 31.46 0 M31.46 0 C31.46 9.81, 31.46 19.61, 31.46 28.85 M31.46 0 C31.46 10.34, 31.46 20.67, 31.46 28.85 M31.46 28.85 C24.57 28.85, 17.68 28.85, 0 28.85 M31.46 28.85 C21.71 28.85, 11.96 28.85, 0 28.85 M0 28.85 C0 19.21, 0 9.57, 0 0 M0 28.85 C0 20.76, 0 12.66, 0 0" stroke="#000000" stroke-width="1" fill="none"/></g><g stroke-linecap="round" transform="translate(402.63478088378906 167.42903900146484) rotate(0 15.731414794921875 14.426589965820312)"><path d="M0 0 L31.46 0 L31.46 28.85 L0 28.85" stroke="none" stroke-width="0" fill="#82c91e"/><path d="M0 0 C11.32 0, 22.64 0, 31.46 0 M0 0 C8.53 0, 17.05 0, 31.46 0 M31.46 0 C31.46 10.57, 31.46 21.14, 31.46 28.85 M31.46 0 C31.46 9.21, 31.46 18.43, 31.46 28.85 M31.46 28.85 C21.59 28.85, 11.72 28.85, 0 28.85 M31.46 28.85 C19.18 28.85, 6.91 28.85, 0 28.85 M0 28.85 C0 19.94, 0 11.02, 0 0 M0 28.85 C0 21.32, 0 13.8, 0 0" stroke="#000000" stroke-width="1" fill="none"/></g><g stroke-linecap="round" transform="translate(433.8561553955078 167.42903900146484) rotate(0 15.731414794921875 14.426589965820312)"><path d="M0 0 L31.46 0 L31.46 28.85 L0 28.85" stroke="none" stroke-width="0" fill="#82c91e"/><path d="M0 0 C9.49 0, 18.98 0, 31.46 0 M0 0 C11.92 0, 23.85 0, 31.46 0 M31.46 0 C31.46 6.98, 31.46 13.95, 31.46 28.85 M31.46 0 C31.46 10.96, 31.46 21.92, 31.46 28.85 M31.46 28.85 C23.51 28.85, 15.56 28.85, 0 28.85 M31.46 28.85 C23.97 28.85, 16.48 28.85, 0 28.85 M0 28.85 C0 19.29, 0 9.72, 0 0 M0 28.85 C0 17.9, 0 6.95, 0 0" stroke="#000000" stroke-width="1" fill="none"/></g><g stroke-linecap="round" transform="translate(464.4752655029297 167.29940032958984) rotate(0 15.731414794921875 14.426589965820312)"><path d="M0 0 L31.46 0 L31.46 28.85 L0 28.85" stroke="none" stroke-width="0" fill="#82c91e"/><path d="M0 0 C6.62 0, 13.23 0, 31.46 0 M0 0 C8.64 0, 17.28 0, 31.46 0 M31.46 0 C31.46 7.8, 31.46 15.59, 31.46 28.85 M31.46 0 C31.46 7.8, 31.46 15.59, 31.46 28.85 M31.46 28.85 C20.87 28.85, 10.28 28.85, 0 28.85 M31.46 28.85 C22.19 28.85, 12.92 28.85, 0 28.85 M0 28.85 C0 18.98, 0 9.11, 0 0 M0 28.85 C0 20.25, 0 11.65, 0 0" stroke="#000000" stroke-width="1" fill="none"/></g><g transform="translate(289.1020050048828 169.34561920166016) rotate(0 5.5 11.5)"><text x="5.5" y="18" font-family="Helvetica, Segoe UI Emoji" font-size="20px" fill="#000000" text-anchor="middle" style="white-space: pre;" direction="ltr">n</text></g><g transform="translate(319.3999786376953 170.34561920166016) rotate(0 5.5 11.5)"><text x="5.5" y="18" font-family="Helvetica, Segoe UI Emoji" font-size="20px" fill="#000000" text-anchor="middle" style="white-space: pre;" direction="ltr">o</text></g><g transform="translate(350.62135314941406 170.34561920166016) rotate(0 5.5 11.5)"><text x="5.5" y="18" font-family="Helvetica, Segoe UI Emoji" font-size="20px" fill="#000000" text-anchor="middle" style="white-space: pre;" direction="ltr">o</text></g><g transform="translate(381.56822204589844 170.35562896728516) rotate(0 5.5 11.5)"><text x="5.5" y="18" font-family="Helvetica, Segoe UI Emoji" font-size="20px" fill="#000000" text-anchor="middle" style="white-space: pre;" direction="ltr">d</text></g><g transform="translate(416.36619567871094 170.35562896728516) rotate(0 2 11.5)"><text x="2" y="18" font-family="Helvetica, Segoe UI Emoji" font-size="20px" fill="#000000" text-anchor="middle" style="white-space: pre;" direction="ltr">l</text></g><g transform="translate(444.0875701904297 170.35562896728516) rotate(0 5.5 11.5)"><text x="5.5" y="18" font-family="Helvetica, Segoe UI Emoji" font-size="20px" fill="#000000" text-anchor="middle" style="white-space: pre;" direction="ltr">e</text></g><g transform="translate(475.36195373535156 170.6143569946289) rotate(0 5 11.5)"><text x="5" y="18" font-family="Helvetica, Segoe UI Emoji" font-size="20px" fill="#000000" text-anchor="middle" style="white-space: pre;" direction="ltr">s</text></g><g stroke-linecap="round" transform="translate(246.79115295410156 167.62337493896484) rotate(0 15.731414794921875 14.426589965820312)"><path d="M0 0 C0 0, 0 0, 0 0 M0 0 C0 0, 0 0, 0 0 M-0.26 6.4 C0.84 5.13, 1.94 3.87, 4.99 0.36 M-0.26 6.4 C1.44 4.44, 3.14 2.48, 4.99 0.36 M0.13 12.04 C2.97 8.77, 5.81 5.51, 10.63 -0.03 M0.13 12.04 C3.08 8.65, 6.02 5.27, 10.63 -0.03 M-0.13 18.44 C4.18 13.48, 8.5 8.51, 15.62 0.33 M-0.13 18.44 C4.31 13.33, 8.75 8.23, 15.62 0.33 M0.27 24.08 C4.47 19.25, 8.67 14.42, 21.26 -0.07 M0.27 24.08 C5.28 18.31, 10.3 12.54, 21.26 -0.07 M0.66 29.72 C6.74 22.73, 12.83 15.73, 26.25 0.29 M0.66 29.72 C10.55 18.35, 20.43 6.98, 26.25 0.29 M6.3 29.33 C13.81 20.69, 21.32 12.05, 31.89 -0.1 M6.3 29.33 C12.03 22.74, 17.75 16.16, 31.89 -0.1 M11.29 29.69 C15.38 24.98, 19.48 20.27, 31.63 6.29 M11.29 29.69 C18.54 21.35, 25.79 13.01, 31.63 6.29 M16.93 29.3 C20.28 25.45, 23.62 21.61, 31.37 12.69 M16.93 29.3 C20.34 25.38, 23.74 21.47, 31.37 12.69 M21.92 29.66 C24.88 26.25, 27.84 22.84, 31.76 18.34 M21.92 29.66 C23.89 27.39, 25.86 25.13, 31.76 18.34 M27.56 29.26 C28.67 27.99, 29.78 26.72, 31.5 24.73 M27.56 29.26 C28.41 28.29, 29.26 27.31, 31.5 24.73" stroke="#868e96" stroke-width="0.5" fill="none"/><path d="M0 0 C10.92 0, 21.84 0, 31.46 0 M0 0 C10.69 0, 21.38 0, 31.46 0 M31.46 0 C31.46 10.34, 31.46 20.67, 31.46 28.85 M31.46 0 C31.46 6.32, 31.46 12.64, 31.46 28.85 M31.46 28.85 C21.71 28.85, 11.96 28.85, 0 28.85 M31.46 28.85 C20.95 28.85, 10.44 28.85, 0 28.85 M0 28.85 C0 20.76, 0 12.66, 0 0 M0 28.85 C0 17.79, 0 6.72, 0 0" stroke="#000000" stroke-width="1" fill="none"/></g><g stroke-linecap="round" transform="translate(495.14817810058594 166.98238372802734) rotate(0 15.731414794921875 14.426589965820312)"><path d="M0 0 C0 0, 0 0, 0 0 M0 0 C0 0, 0 0, 0 0 M-0.26 6.4 C1.37 4.53, 2.99 2.65, 4.99 0.36 M-0.26 6.4 C0.92 5.03, 2.11 3.67, 4.99 0.36 M0.13 12.04 C3.96 7.64, 7.78 3.24, 10.63 -0.03 M0.13 12.04 C3.76 7.87, 7.39 3.69, 10.63 -0.03 M-0.13 18.44 C5.41 12.07, 10.95 5.69, 15.62 0.33 M-0.13 18.44 C5.41 12.06, 10.96 5.69, 15.62 0.33 M0.27 24.08 C6.88 16.48, 13.49 8.87, 21.26 -0.07 M0.27 24.08 C6.95 16.39, 13.64 8.7, 21.26 -0.07 M0.66 29.72 C6.06 23.52, 11.45 17.31, 26.25 0.29 M0.66 29.72 C10.8 18.06, 20.94 6.39, 26.25 0.29 M6.3 29.33 C15.34 18.94, 24.37 8.55, 31.89 -0.1 M6.3 29.33 C14.57 19.82, 22.84 10.3, 31.89 -0.1 M11.29 29.69 C18.42 21.49, 25.55 13.29, 31.63 6.29 M11.29 29.69 C16.03 24.24, 20.76 18.8, 31.63 6.29 M16.93 29.3 C21.98 23.5, 27.02 17.7, 31.37 12.69 M16.93 29.3 C22.19 23.25, 27.44 17.21, 31.37 12.69 M21.92 29.66 C25.59 25.43, 29.26 21.21, 31.76 18.34 M21.92 29.66 C24.59 26.59, 27.25 23.52, 31.76 18.34 M27.56 29.26 C28.99 27.62, 30.42 25.97, 31.5 24.73 M27.56 29.26 C28.87 27.76, 30.17 26.26, 31.5 24.73" stroke="#868e96" stroke-width="0.5" fill="none"/><path d="M0 0 C8.53 0, 17.05 0, 31.46 0 M0 0 C11.53 0, 23.05 0, 31.46 0 M31.46 0 C31.46 9.21, 31.46 18.43, 31.46 28.85 M31.46 0 C31.46 9.05, 31.46 18.1, 31.46 28.85 M31.46 28.85 C19.18 28.85, 6.91 28.85, 0 28.85 M31.46 28.85 C21.74 28.85, 12.02 28.85, 0 28.85 M0 28.85 C0 21.32, 0 13.8, 0 0 M0 28.85 C0 17.88, 0 6.9, 0 0" stroke="#000000" stroke-width="1" fill="none"/></g><g transform="translate(355.7390899658203 200.68900299072266) rotate(0 33 18)"><text x="33" y="14" font-family="Helvetica, Segoe UI Emoji" font-size="16px" fill="#000000" text-anchor="middle" style="white-space: pre;" direction="ltr">str</text><text x="33" y="32" font-family="Helvetica, Segoe UI Emoji" font-size="16px" fill="#000000" text-anchor="middle" style="white-space: pre;" direction="ltr">(unsized)</text></g><g stroke-linecap="round" transform="translate(281.15234375 49.81031799316406) rotate(0 15.731414794921875 14.426589965820312)"><path d="M0 0 C9.77 0, 19.55 0, 31.46 0 M0 0 C11.86 0, 23.73 0, 31.46 0 M31.46 0 C31.46 11.53, 31.46 23.06, 31.46 28.85 M31.46 0 C31.46 8.88, 31.46 17.76, 31.46 28.85 M31.46 28.85 C18.94 28.85, 6.42 28.85, 0 28.85 M31.46 28.85 C18.9 28.85, 6.33 28.85, 0 28.85 M0 28.85 C0 18.36, 0 7.87, 0 0 M0 28.85 C0 20.16, 0 11.47, 0 0" stroke="#000000" stroke-width="1" fill="none"/></g><g stroke-linecap="round" transform="translate(312.4503173828125 49.81031799316406) rotate(0 15.731414794921875 14.426589965820312)"><path d="M0 0 C7.36 0, 14.72 0, 31.46 0 M0 0 C7.09 0, 14.17 0, 31.46 0 M31.46 0 C31.46 9.26, 31.46 18.51, 31.46 28.85 M31.46 0 C31.46 9.65, 31.46 19.3, 31.46 28.85 M31.46 28.85 C22.79 28.85, 14.12 28.85, 0 28.85 M31.46 28.85 C24.23 28.85, 16.99 28.85, 0 28.85 M0 28.85 C0 18.09, 0 7.33, 0 0 M0 28.85 C0 17.73, 0 6.6, 0 0" stroke="#000000" stroke-width="1" fill="none"/></g><g stroke-linecap="round" transform="translate(343.67169189453125 49.81031799316406) rotate(0 15.731414794921875 14.426589965820312)"><path d="M0 0 C7.57 0, 15.15 0, 31.46 0 M0 0 C12 0, 24.01 0, 31.46 0 M31.46 0 C31.46 9.52, 31.46 19.04, 31.46 28.85 M31.46 0 C31.46 9.28, 31.46 18.56, 31.46 28.85 M31.46 28.85 C19.21 28.85, 6.96 28.85, 0 28.85 M31.46 28.85 C20.01 28.85, 8.56 28.85, 0 28.85 M0 28.85 C0 21.18, 0 13.51, 0 0 M0 28.85 C0 21.77, 0 14.69, 0 0" stroke="#000000" stroke-width="1" fill="none"/></g><g stroke-linecap="round" transform="translate(290.57275390625 63.77857971191406) rotate(0 5.523956298828125 5.5540924072265625)"><path d="M9.07 1.3 C9.98 2.06, 10.76 3.42, 10.96 4.59 C11.17 5.76, 10.9 7.3, 10.31 8.33 C9.72 9.36, 8.53 10.37, 7.41 10.77 C6.3 11.18, 4.75 11.18, 3.63 10.77 C2.52 10.37, 1.33 9.36, 0.74 8.33 C0.15 7.3, -0.12 5.76, 0.08 4.59 C0.29 3.42, 1.07 2.06, 1.97 1.3 C2.88 0.53, 4.34 0, 5.52 0 C6.71 0, 8.17 0.53, 9.07 1.3" stroke="none" stroke-width="0" fill="#82c91e"/><path d="M9.07 1.3 C9.98 2.06, 10.76 3.42, 10.96 4.59 C11.17 5.76, 10.9 7.3, 10.31 8.33 C9.72 9.36, 8.53 10.37, 7.41 10.77 C6.3 11.18, 4.75 11.18, 3.63 10.77 C2.52 10.37, 1.33 9.36, 0.74 8.33 C0.15 7.3, -0.12 5.76, 0.08 4.59 C0.29 3.42, 1.07 2.06, 1.97 1.3 C2.88 0.53, 4.34 0, 5.52 0 C6.71 0, 8.17 0.53, 9.07 1.3" stroke="#5c940d" stroke-width="1" fill="none"/></g><g transform="translate(323.75933837890625 55.236907958984375) rotate(0 4.5 9)"><text x="4.5" y="14" font-family="Helvetica, Segoe UI Emoji" font-size="16px" fill="#000000" text-anchor="middle" style="white-space: pre;" direction="ltr">7</text></g><g transform="translate(354.980712890625 55.236907958984375) rotate(0 4.5 9)"><text x="4.5" y="14" font-family="Helvetica, Segoe UI Emoji" font-size="16px" fill="#000000" text-anchor="middle" style="white-space: pre;" direction="ltr">7</text></g><g transform="translate(316.5188903808594 93.98757934570312) rotate(43.8692498728171 22 9)"><text x="0" y="14" font-family="Helvetica, Segoe UI Emoji" font-size="16px" fill="#000000" text-anchor="start" style="white-space: pre;" direction="ltr">length</text></g><g transform="translate(345.32589945797224 97.3253286781557) rotate(43.8692498728171 29.5 9)"><text x="0" y="14" font-family="Helvetica, Segoe UI Emoji" font-size="16px" fill="#000000" text-anchor="start" style="white-space: pre;" direction="ltr">capacity</text></g><g transform="translate(103 172.41360473632812) rotate(0 18 9)"><text x="0" y="14" font-family="Helvetica, Segoe UI Emoji" font-size="16px" fill="#000000" text-anchor="start" style="white-space: pre;" direction="ltr">heap</text></g><g stroke-linecap="round" transform="translate(405.9784851074219 50.044278862066136) rotate(0 15.731414794921875 14.426589965820312)"><path d="M0 0 C9.25 0, 18.5 0, 31.46 0 M0 0 C6.81 0, 13.62 0, 31.46 0 M31.46 0 C31.46 5.88, 31.46 11.76, 31.46 28.85 M31.46 0 C31.46 9.95, 31.46 19.91, 31.46 28.85 M31.46 28.85 C24.24 28.85, 17.02 28.85, 0 28.85 M31.46 28.85 C24.56 28.85, 17.66 28.85, 0 28.85 M0 28.85 C0 17.49, 0 6.12, 0 0 M0 28.85 C0 19.74, 0 10.63, 0 0" stroke="#000000" stroke-width="1" fill="none"/></g><g stroke-linecap="round" transform="translate(437.3540954589844 50.044278862066136) rotate(0 15.731414794921875 14.426589965820312)"><path d="M0 0 C11.53 0, 23.05 0, 31.46 0 M0 0 C6.95 0, 13.89 0, 31.46 0 M31.46 0 C31.46 6.58, 31.46 13.16, 31.46 28.85 M31.46 0 C31.46 9.29, 31.46 18.58, 31.46 28.85 M31.46 28.85 C22.44 28.85, 13.41 28.85, 0 28.85 M31.46 28.85 C22.2 28.85, 12.94 28.85, 0 28.85 M0 28.85 C0 20.08, 0 11.31, 0 0 M0 28.85 C0 22.85, 0 16.86, 0 0" stroke="#000000" stroke-width="1" fill="none"/></g><g stroke-linecap="round" transform="translate(468.5754699707031 49.96661162573801) rotate(0 15.731414794921875 14.426589965820312)"><path d="M0 0 C0 0, 0 0, 0 0 M0 0 C0 0, 0 0, 0 0 M-0.26 6.4 C1.13 4.8, 2.52 3.2, 4.99 0.36 M-0.26 6.4 C1.77 4.06, 3.8 1.73, 4.99 0.36 M0.13 12.04 C3.3 8.39, 6.47 4.75, 10.63 -0.03 M0.13 12.04 C4.17 7.4, 8.2 2.76, 10.63 -0.03 M-0.13 18.44 C5.9 11.5, 11.93 4.56, 15.62 0.33 M-0.13 18.44 C5.05 12.48, 10.24 6.51, 15.62 0.33 M0.27 24.08 C8.22 14.93, 16.18 5.78, 21.26 -0.07 M0.27 24.08 C7.34 15.95, 14.41 7.82, 21.26 -0.07 M0.66 29.72 C8.58 20.61, 16.5 11.5, 26.25 0.29 M0.66 29.72 C6.19 23.36, 11.72 17, 26.25 0.29 M6.3 29.33 C13.59 20.95, 20.87 12.57, 31.89 -0.1 M6.3 29.33 C13.43 21.13, 20.56 12.93, 31.89 -0.1 M11.29 29.69 C18.3 21.62, 25.31 13.56, 31.63 6.29 M11.29 29.69 C16.31 23.92, 21.33 18.14, 31.63 6.29 M16.93 29.3 C19.84 25.95, 22.75 22.61, 31.37 12.69 M16.93 29.3 C20.76 24.9, 24.58 20.5, 31.37 12.69 M21.92 29.66 C24.66 26.51, 27.39 23.36, 31.76 18.34 M21.92 29.66 C23.96 27.32, 25.99 24.98, 31.76 18.34 M27.56 29.26 C28.55 28.13, 29.53 27, 31.5 24.73 M27.56 29.26 C28.69 27.96, 29.82 26.67, 31.5 24.73" stroke="#868e96" stroke-width="0.5" fill="none"/><path d="M0 0 C6.54 0, 13.08 0, 31.46 0 M0 0 C8 0, 16 0, 31.46 0 M31.46 0 C31.46 8.65, 31.46 17.3, 31.46 28.85 M31.46 0 C31.46 7.67, 31.46 15.33, 31.46 28.85 M31.46 28.85 C25.14 28.85, 18.82 28.85, 0 28.85 M31.46 28.85 C21.76 28.85, 12.06 28.85, 0 28.85 M0 28.85 C0 21.79, 0 14.73, 0 0 M0 28.85 C0 20.93, 0 13.01, 0 0" stroke="#000000" stroke-width="1" fill="none"/></g><g stroke-linecap="round" transform="translate(415.4765319824219 64.01254058081614) rotate(0 5.523956298828125 5.5540924072265625)"><path d="M9.07 1.3 C9.98 2.06, 10.76 3.42, 10.96 4.59 C11.17 5.76, 10.9 7.3, 10.31 8.33 C9.72 9.36, 8.53 10.37, 7.41 10.77 C6.3 11.18, 4.75 11.18, 3.63 10.77 C2.52 10.37, 1.33 9.36, 0.74 8.33 C0.15 7.3, -0.12 5.76, 0.08 4.59 C0.29 3.42, 1.07 2.06, 1.97 1.3 C2.88 0.53, 4.34 0, 5.52 0 C6.71 0, 8.17 0.53, 9.07 1.3" stroke="none" stroke-width="0" fill="#1864ab"/><path d="M9.07 1.3 C9.98 2.06, 10.76 3.42, 10.96 4.59 C11.17 5.76, 10.9 7.3, 10.31 8.33 C9.72 9.36, 8.53 10.37, 7.41 10.77 C6.3 11.18, 4.75 11.18, 3.63 10.77 C2.52 10.37, 1.33 9.36, 0.74 8.33 C0.15 7.3, -0.12 5.76, 0.08 4.59 C0.29 3.42, 1.07 2.06, 1.97 1.3 C2.88 0.53, 4.34 0, 5.52 0 C6.71 0, 8.17 0.53, 9.07 1.3" stroke="#1864ab" stroke-width="1" fill="none"/></g><g transform="translate(443.96337890625 91.63862395483957) rotate(43.8692498728171 22 9)"><text x="0" y="14" font-family="Helvetica, Segoe UI Emoji" font-size="16px" fill="#000000" text-anchor="start" style="white-space: pre;" direction="ltr">length</text></g><g transform="translate(448.6631774902344 55.47086882788645) rotate(0 4.5 9)"><text x="4.5" y="14" font-family="Helvetica, Segoe UI Emoji" font-size="16px" fill="#000000" text-anchor="middle" style="white-space: pre;" direction="ltr">6</text></g><g stroke-linecap="round" transform="translate(375.04962158203125 50.044278862066136) rotate(0 15.731414794921875 14.426589965820312)"><path d="M0 0 C0 0, 0 0, 0 0 M0 0 C0 0, 0 0, 0 0 M-0.26 6.4 C1.66 4.19, 3.58 1.97, 4.99 0.36 M-0.26 6.4 C1.56 4.3, 3.38 2.21, 4.99 0.36 M0.13 12.04 C3.78 7.84, 7.43 3.65, 10.63 -0.03 M0.13 12.04 C3.21 8.5, 6.29 4.96, 10.63 -0.03 M-0.13 18.44 C5.43 12.05, 10.98 5.66, 15.62 0.33 M-0.13 18.44 C3.1 14.73, 6.32 11.02, 15.62 0.33 M0.27 24.08 C6.66 16.72, 13.06 9.36, 21.26 -0.07 M0.27 24.08 C7.33 15.95, 14.4 7.82, 21.26 -0.07 M0.66 29.72 C8.76 20.41, 16.86 11.09, 26.25 0.29 M0.66 29.72 C9.55 19.5, 18.43 9.28, 26.25 0.29 M6.3 29.33 C14.8 19.56, 23.29 9.79, 31.89 -0.1 M6.3 29.33 C11.58 23.26, 16.86 17.19, 31.89 -0.1 M11.29 29.69 C16.69 23.48, 22.08 17.28, 31.63 6.29 M11.29 29.69 C15.44 24.91, 19.6 20.13, 31.63 6.29 M16.93 29.3 C20.45 25.26, 23.96 21.22, 31.37 12.69 M16.93 29.3 C20.72 24.94, 24.51 20.58, 31.37 12.69 M21.92 29.66 C25.32 25.75, 28.71 21.85, 31.76 18.34 M21.92 29.66 C25.28 25.79, 28.64 21.93, 31.76 18.34 M27.56 29.26 C28.52 28.16, 29.47 27.07, 31.5 24.73 M27.56 29.26 C28.95 27.67, 30.33 26.08, 31.5 24.73" stroke="#868e96" stroke-width="0.5" fill="none"/><path d="M0 0 C9.14 0, 18.28 0, 31.46 0 M0 0 C9.6 0, 19.21 0, 31.46 0 M31.46 0 C31.46 11.34, 31.46 22.69, 31.46 28.85 M31.46 0 C31.46 7.03, 31.46 14.06, 31.46 28.85 M31.46 28.85 C21.02 28.85, 10.57 28.85, 0 28.85 M31.46 28.85 C22.87 28.85, 14.27 28.85, 0 28.85 M0 28.85 C0 17.61, 0 6.37, 0 0 M0 28.85 C0 17.92, 0 6.98, 0 0" stroke="#000000" stroke-width="1" fill="none"/></g><g stroke-linecap="round"><g transform="translate(202.57244873046875 74.45438934293324) rotate(0 0.5895116209218259 103.41367738078873)"><path d="M0 0 C0.2 34.47, 0.98 172.36, 1.18 206.83 M0 0 C0.2 34.47, 0.98 172.36, 1.18 206.83" stroke="#e67700" stroke-width="1" fill="none"/></g><g transform="translate(202.57244873046875 74.45438934293324) rotate(0 0.5895116209218259 103.41367738078873)"><path d="M-9.24 178.7 C-6.54 186, -3.83 193.31, 1.18 206.83 M-9.24 178.7 C-5.86 187.83, -2.47 196.96, 1.18 206.83" stroke="#e67700" stroke-width="1" fill="none"/></g><g transform="translate(202.57244873046875 74.45438934293324) rotate(0 0.5895116209218259 103.41367738078873)"><path d="M11.28 178.58 C8.66 185.92, 6.03 193.25, 1.18 206.83 M11.28 178.58 C8 187.75, 4.72 196.92, 1.18 206.83" stroke="#e67700" stroke-width="1" fill="none"/></g></g><g stroke-linecap="round"><g transform="translate(295.0474548339844 75.93865966796882) rotate(0 -1.148651123046875 44.907653808593714)"><path d="M0 0 C-0.38 14.97, -1.91 74.85, -2.3 89.82 M0 0 C-0.38 14.97, -1.91 74.85, -2.3 89.82" stroke="#5c940d" stroke-width="1" fill="none"/></g><g transform="translate(295.0474548339844 75.93865966796882) rotate(0 -1.148651123046875 44.907653808593714)"><path d="M-11.83 61.37 C-9.55 68.17, -7.27 74.97, -2.3 89.82 M-11.83 61.37 C-9.6 68.04, -7.36 74.7, -2.3 89.82" stroke="#5c940d" stroke-width="1" fill="none"/></g><g transform="translate(295.0474548339844 75.93865966796882) rotate(0 -1.148651123046875 44.907653808593714)"><path d="M8.68 61.9 C6.06 68.57, 3.43 75.25, -2.3 89.82 M8.68 61.9 C6.11 68.44, 3.54 74.98, -2.3 89.82" stroke="#5c940d" stroke-width="1" fill="none"/></g></g><g transform="translate(206.25360107421875 235.11935424804685) rotate(0 28.5 9)"><text x="28.5" y="14" font-family="Helvetica, Segoe UI Emoji" font-size="16px" fill="#e67700" text-anchor="middle" style="white-space: pre;" direction="ltr">borrows</text></g><g transform="translate(251.67349243164062 132.899169921875) rotate(0 18.5 9)"><text x="18.5" y="14" font-family="Helvetica, Segoe UI Emoji" font-size="16px" fill="#5c940d" text-anchor="middle" style="white-space: pre;" direction="ltr">owns</text></g><g stroke-linecap="round"><g transform="translate(421.01614093965816 74.57617187499999) rotate(0 -48.6499835183013 46.05752563476563)"><path d="M0 0 C-1.48 10.08, 5.86 49.06, -8.9 60.49 C-23.66 71.93, -73.84 63.34, -88.57 68.61 C-103.31 73.88, -95.85 88.2, -97.3 92.12 M0 0 C-1.48 10.08, 5.86 49.06, -8.9 60.49 C-23.66 71.93, -73.84 63.34, -88.57 68.61 C-103.31 73.88, -95.85 88.2, -97.3 92.12" stroke="#1864ab" stroke-width="1" fill="none"/></g><g transform="translate(421.01614093965816 74.57617187499999) rotate(0 -48.6499835183013 46.05752563476563)"><path d="M-102.11 80.54 C-100.6 84.17, -99.09 87.81, -97.3 92.12 M-102.11 80.54 C-100.63 84.1, -99.15 87.66, -97.3 92.12" stroke="#1864ab" stroke-width="1" fill="none"/></g><g transform="translate(421.01614093965816 74.57617187499999) rotate(0 -48.6499835183013 46.05752563476563)"><path d="M-93.54 80.15 C-94.72 83.91, -95.9 87.66, -97.3 92.12 M-93.54 80.15 C-94.7 83.84, -95.85 87.52, -97.3 92.12" stroke="#1864ab" stroke-width="1" fill="none"/></g></g><g transform="translate(392.0135192871094 130.16629028320312) rotate(0 28.5 9)"><text x="28.5" y="14" font-family="Helvetica, Segoe UI Emoji" font-size="16px" fill="#1864ab" text-anchor="middle" style="white-space: pre;" direction="ltr">borrows</text></g><g transform="translate(187.8582763671875 10) rotate(0 30.5 18)"><text x="30.5" y="14" font-family="Helvetica, Segoe UI Emoji" font-size="16px" fill="#000000" text-anchor="middle" style="white-space: pre;" direction="ltr">noodles:</text><text x="30.5" y="32" font-family="Helvetica, Segoe UI Emoji" font-size="16px" fill="#000000" text-anchor="middle" style="white-space: pre;" direction="ltr">&amp;str</text></g><g transform="translate(298.0693054199219 10) rotate(0 30.5 18)"><text x="30.5" y="14" font-family="Helvetica, Segoe UI Emoji" font-size="16px" fill="#000000" text-anchor="middle" style="white-space: pre;" direction="ltr">poodles:</text><text x="30.5" y="32" font-family="Helvetica, Segoe UI Emoji" font-size="16px" fill="#000000" text-anchor="middle" style="white-space: pre;" direction="ltr">String</text></g><g transform="translate(410.8710632324219 10) rotate(0 26 18)"><text x="26" y="14" font-family="Helvetica, Segoe UI Emoji" font-size="16px" fill="#000000" text-anchor="middle" style="white-space: pre;" direction="ltr">oodles:</text><text x="26" y="32" font-family="Helvetica, Segoe UI Emoji" font-size="16px" fill="#000000" text-anchor="middle" style="white-space: pre;" direction="ltr">&amp;str</text></g><g stroke-linecap="round"><g transform="translate(188.67388916015625 282.3186950683594) rotate(0 45.35966491699219 -42.99090576171875)"><path d="M0 0 C15.12 -14.33, 75.6 -71.65, 90.72 -85.98" stroke="#868e96" stroke-width="1.5" fill="none" stroke-dasharray="1.5 7"/></g></g><g stroke-linecap="round"><g transform="translate(408.13108825683594 277.8273620605469) rotate(0 45.35966491699219 -42.99090576171875)"><path d="M0 0 C15.12 -14.33, 75.6 -71.65, 90.72 -85.98" stroke="#868e96" stroke-width="1.5" fill="none" stroke-dasharray="1.5 7"/></g></g><g transform="translate(420.1351623535156 241.8662414550781) rotate(0 40 11)"><text x="40" y="17" font-family="Helvetica, Segoe UI Emoji" font-size="16px" fill="#868e96" text-anchor="middle" style="white-space: pre;" direction="ltr">逐字节拷贝</text></g></svg>