<svg version="1.1" xmlns="http://www.w3.org/2000/svg" viewBox="0 0 601.4368438720703 434.39353942871094" width="1804.310531616211" height="1303.1806182861328">
  <!-- svg-source:excalidraw -->
  
  <defs>
    <style>
      @font-face {
        font-family: "Virgil";
        src: url("https://excalidraw.com/Virgil.woff2");
      }
      @font-face {
        font-family: "Cascadia";
        src: url("https://excalidraw.com/Cascadia.woff2");
      }
    </style>
  </defs>
  <rect x="0" y="0" width="601.4368438720703" height="434.39353942871094" fill="#ffffff"></rect><g stroke-linecap="round" transform="translate(10 10.351577758789062) rotate(0 145.5439910888672 207.02098083496094)"><path d="M0 0 C69.67 0, 139.34 0, 291.09 0 M291.09 0 C291.09 140.29, 291.09 280.58, 291.09 414.04 M291.09 414.04 C190.27 414.04, 89.44 414.04, 0 414.04 M0 414.04 C0 296.82, 0 179.6, 0 0" stroke="#f1f3f5" stroke-width="1.5" fill="none" stroke-dasharray="8 9"></path></g><g transform="translate(32.5335693359375 31.791976928710938) rotate(0 20 14)"><text x="0" y="21" font-family="Helvetica, Segoe UI Emoji" font-size="20px" fill="#d9480f" text-anchor="start" style="white-space: pre;" direction="ltr">并发</text></g><g stroke-linecap="round" transform="translate(60.76312255859375 88.38716125488281) rotate(0 95.98841857910156 138.61634826660156)"><path d="M0 0 C52.79 0, 105.59 0, 191.98 0 M0 0 C39.9 0, 79.8 0, 191.98 0 M191.98 0 C191.98 96.68, 191.98 193.36, 191.98 277.23 M191.98 0 C191.98 91.75, 191.98 183.49, 191.98 277.23 M191.98 277.23 C115.57 277.23, 39.17 277.23, 0 277.23 M191.98 277.23 C116.38 277.23, 40.79 277.23, 0 277.23 M0 277.23 C0 212.51, 0 147.79, 0 0 M0 277.23 C0 185.38, 0 93.52, 0 0" stroke="#000000" stroke-width="1" fill="none"></path></g><g stroke-linecap="round"><g transform="translate(154.73251342773438 88.20564270019531) rotate(0 0.1727752685546875 -20.829193115234375)"><path d="M0 0 C0.06 -6.94, 0.29 -34.72, 0.35 -41.66 M0 0 C0.06 -6.94, 0.29 -34.72, 0.35 -41.66" stroke="#000000" stroke-width="1" fill="none"></path></g></g><g stroke-linecap="round"><g transform="translate(156.29893493652344 407.68199157714844) rotate(0 0.1727752685546875 -20.829193115234375)"><path d="M0 0 C0.06 -6.94, 0.29 -34.72, 0.35 -41.66 M0 0 C0.06 -6.94, 0.29 -34.72, 0.35 -41.66" stroke="#000000" stroke-width="1" fill="none"></path></g></g><g stroke-linecap="round"><g transform="translate(98.84263377192747 132.5565643310547) rotate(0 0.08773157595032899 22.768280029296875)"><path d="M0 0 C0.03 7.59, 0.15 37.95, 0.18 45.54 M0 0 C0.03 7.59, 0.15 37.95, 0.18 45.54" stroke="#d9480f" stroke-width="1" fill="none"></path></g><g transform="translate(98.84263377192747 132.5565643310547) rotate(0 0.08773157595032899 22.768280029296875)"><path d="M-7.69 24.17 C-5.51 30.1, -3.33 36.02, 0.18 45.54 M-7.69 24.17 C-5.77 29.4, -3.84 34.63, 0.18 45.54" stroke="#d9480f" stroke-width="1" fill="none"></path></g><g transform="translate(98.84263377192747 132.5565643310547) rotate(0 0.08773157595032899 22.768280029296875)"><path d="M7.88 24.11 C5.74 30.05, 3.61 35.99, 0.18 45.54 M7.88 24.11 C6 29.35, 4.11 34.59, 0.18 45.54" stroke="#d9480f" stroke-width="1" fill="none"></path></g></g><g stroke-linecap="round"><g transform="translate(206.00770568847656 189.4219512939453) rotate(0 0.580718994140625 23.23370361328125)"><path d="M0 0 C0.19 7.74, 0.97 38.72, 1.16 46.47 M0 0 C0.19 7.74, 0.97 38.72, 1.16 46.47" stroke="#d9480f" stroke-width="1" fill="none"></path></g><g transform="translate(206.00770568847656 189.4219512939453) rotate(0 0.580718994140625 23.23370361328125)"><path d="M-7.33 24.83 C-4.92 30.97, -2.51 37.1, 1.16 46.47 M-7.33 24.83 C-5.43 29.67, -3.53 34.51, 1.16 46.47" stroke="#d9480f" stroke-width="1" fill="none"></path></g><g transform="translate(206.00770568847656 189.4219512939453) rotate(0 0.580718994140625 23.23370361328125)"><path d="M8.56 24.44 C6.46 30.68, 4.36 36.93, 1.16 46.47 M8.56 24.44 C6.91 29.36, 5.25 34.29, 1.16 46.47" stroke="#d9480f" stroke-width="1" fill="none"></path></g></g><g stroke-linecap="round"><g transform="translate(99.24009704589844 238.78590393066406) rotate(0 0.1147003173828125 22.729461669921875)"><path d="M0 0 C0.04 7.58, 0.19 37.88, 0.23 45.46 M0 0 C0.04 7.58, 0.19 37.88, 0.23 45.46" stroke="#d9480f" stroke-width="1" fill="none"></path></g><g transform="translate(99.24009704589844 238.78590393066406) rotate(0 0.1147003173828125 22.729461669921875)"><path d="M-7.65 24.14 C-4.67 32.22, -1.68 40.29, 0.23 45.46 M-7.65 24.14 C-4.94 31.49, -2.22 38.84, 0.23 45.46" stroke="#d9480f" stroke-width="1" fill="none"></path></g><g transform="translate(99.24009704589844 238.78590393066406) rotate(0 0.1147003173828125 22.729461669921875)"><path d="M7.9 24.06 C4.99 32.17, 2.09 40.27, 0.23 45.46 M7.9 24.06 C5.25 31.44, 2.61 38.81, 0.23 45.46" stroke="#d9480f" stroke-width="1" fill="none"></path></g></g><g stroke-linecap="round"><g transform="translate(205.74732971191406 292.9290313720703) rotate(0 0.1147003173828125 22.729461669921875)"><path d="M0 0 C0.04 7.58, 0.19 37.88, 0.23 45.46 M0 0 C0.04 7.58, 0.19 37.88, 0.23 45.46" stroke="#d9480f" stroke-width="1" fill="none"></path></g><g transform="translate(205.74732971191406 292.9290313720703) rotate(0 0.1147003173828125 22.729461669921875)"><path d="M-7.65 24.14 C-6.01 28.57, -4.38 33, 0.23 45.46 M-7.65 24.14 C-5.77 29.23, -3.89 34.31, 0.23 45.46" stroke="#d9480f" stroke-width="1" fill="none"></path></g><g transform="translate(205.74732971191406 292.9290313720703) rotate(0 0.1147003173828125 22.729461669921875)"><path d="M7.9 24.06 C6.3 28.51, 4.71 32.96, 0.23 45.46 M7.9 24.06 C6.07 29.17, 4.24 34.27, 0.23 45.46" stroke="#d9480f" stroke-width="1" fill="none"></path></g></g><g transform="translate(78.19329833984375 100.72502136230469) rotate(0 22.5 11)"><text x="0" y="17" font-family="Helvetica, Segoe UI Emoji" font-size="16px" fill="#000000" text-anchor="start" style="white-space: pre;" direction="ltr">任务 1</text></g><g transform="translate(181.01824951171875 100.34483337402344) rotate(0 22.5 11)"><text x="0" y="17" font-family="Helvetica, Segoe UI Emoji" font-size="16px" fill="#000000" text-anchor="start" style="white-space: pre;" direction="ltr">任务 2</text></g><g stroke-linecap="round"><g transform="translate(101.30517578125 180.9532928466797) rotate(0 53.06336975097656 -7.614776611328125)"><path d="M0 0 C8.68 -3.5, 34.38 -21.96, 52.07 -21 C69.76 -20.04, 97.12 1.31, 106.13 5.77 M0 0 C8.68 -3.5, 34.38 -21.96, 52.07 -21 C69.76 -20.04, 97.12 1.31, 106.13 5.77" stroke="#d9480f" stroke-width="1" fill="none"></path></g><g transform="translate(101.30517578125 180.9532928466797) rotate(0 53.06336975097656 -7.614776611328125)"><path d="M76.74 -0.26 C85.3 1.5, 93.86 3.25, 106.13 5.77 M76.74 -0.26 C83.5 1.13, 90.26 2.51, 106.13 5.77" stroke="#d9480f" stroke-width="1" fill="none"></path></g><g transform="translate(101.30517578125 180.9532928466797) rotate(0 53.06336975097656 -7.614776611328125)"><path d="M87.49 -17.74 C92.92 -10.89, 98.35 -4.04, 106.13 5.77 M87.49 -17.74 C91.77 -12.33, 96.06 -6.92, 106.13 5.77" stroke="#d9480f" stroke-width="1" fill="none"></path></g></g><g stroke-linecap="round"><g transform="translate(208.03439331054688 238.91795349121094) rotate(0 -54.462432861328125 4.7398681640625)"><path d="M0 0 C-8.4 2.47, -32.27 15.71, -50.43 14.82 C-68.58 13.93, -99.18 -1.98, -108.92 -5.34 M0 0 C-8.4 2.47, -32.27 15.71, -50.43 14.82 C-68.58 13.93, -99.18 -1.98, -108.92 -5.34" stroke="#d9480f" stroke-width="1" fill="none"></path></g><g transform="translate(208.03439331054688 238.91795349121094) rotate(0 -54.462432861328125 4.7398681640625)"><path d="M-78.96 -3.89 C-90.24 -4.44, -101.52 -4.98, -108.92 -5.34 M-78.96 -3.89 C-89.96 -4.42, -100.96 -4.96, -108.92 -5.34" stroke="#d9480f" stroke-width="1" fill="none"></path></g><g transform="translate(208.03439331054688 238.91795349121094) rotate(0 -54.462432861328125 4.7398681640625)"><path d="M-86.9 15.03 C-95.19 7.36, -103.48 -0.31, -108.92 -5.34 M-86.9 15.03 C-94.99 7.55, -103.07 0.07, -108.92 -5.34" stroke="#d9480f" stroke-width="1" fill="none"></path></g></g><g stroke-linecap="round"><g transform="translate(101.60104370117188 288.11790466308594) rotate(0 52.241851806640625 -3.761260986328125)"><path d="M0 0 C9.87 -2.22, 41.82 -14.26, 59.24 -13.3 C76.65 -12.34, 96.94 2.6, 104.48 5.78 M0 0 C9.87 -2.22, 41.82 -14.26, 59.24 -13.3 C76.65 -12.34, 96.94 2.6, 104.48 5.78" stroke="#d9480f" stroke-width="1" fill="none"></path></g><g transform="translate(101.60104370117188 288.11790466308594) rotate(0 52.241851806640625 -3.761260986328125)"><path d="M80.21 2.12 C87.68 3.25, 95.16 4.37, 104.48 5.78 M80.21 2.12 C88.04 3.3, 95.87 4.48, 104.48 5.78" stroke="#d9480f" stroke-width="1" fill="none"></path></g><g transform="translate(101.60104370117188 288.11790466308594) rotate(0 52.241851806640625 -3.761260986328125)"><path d="M88.24 -12.63 C93.24 -6.96, 98.24 -1.29, 104.48 5.78 M88.24 -12.63 C93.48 -6.69, 98.72 -0.75, 104.48 5.78" stroke="#d9480f" stroke-width="1" fill="none"></path></g></g><g transform="translate(109.47811889648438 181.77452087402344) rotate(0 40 11)"><text x="0" y="17" font-family="Helvetica, Segoe UI Emoji" font-size="16px" fill="#000000" text-anchor="start" style="white-space: pre;" direction="ltr">上下文切换</text></g><g stroke-linecap="round" transform="translate(300.34886169433594 10) rotate(0 145.5439910888672 207.02098083496094)"><path d="M0 0 C103.5 0, 207 0, 291.09 0 M291.09 0 C291.09 86.49, 291.09 172.98, 291.09 414.04 M291.09 414.04 C184.33 414.04, 77.57 414.04, 0 414.04 M0 414.04 C0 264.61, 0 115.17, 0 0" stroke="#f1f3f5" stroke-width="1.5" fill="none" stroke-dasharray="8 9"></path></g><g transform="translate(519.0607604980469 29.050613403320312) rotate(0 20 14)"><text x="0" y="21" font-family="Helvetica, Segoe UI Emoji" font-size="20px" fill="#0b7285" text-anchor="start" style="white-space: pre;" direction="ltr">并行</text></g><g stroke-linecap="round" transform="translate(358.5222930908203 88.47567749023438) rotate(0 35.89234924316406 138.61634826660156)"><path d="M0 0 C22.01 0, 44.03 0, 71.78 0 M0 0 C24.47 0, 48.94 0, 71.78 0 M71.78 0 C71.78 72.59, 71.78 145.17, 71.78 277.23 M71.78 0 C71.78 90.22, 71.78 180.43, 71.78 277.23 M71.78 277.23 C56.97 277.23, 42.16 277.23, 0 277.23 M71.78 277.23 C48.25 277.23, 24.72 277.23, 0 277.23 M0 277.23 C0 218.27, 0 159.3, 0 0 M0 277.23 C0 215.22, 0 153.2, 0 0" stroke="#000000" stroke-width="1" fill="none"></path></g><g stroke-linecap="round" transform="translate(465.3585968017578 87.97640991210938) rotate(0 35.89234924316406 138.61634826660156)"><path d="M0 0 C17.07 0, 34.14 0, 71.78 0 M0 0 C16.4 0, 32.8 0, 71.78 0 M71.78 0 C71.78 96.65, 71.78 193.31, 71.78 277.23 M71.78 0 C71.78 78.45, 71.78 156.89, 71.78 277.23 M71.78 277.23 C50.56 277.23, 29.34 277.23, 0 277.23 M71.78 277.23 C48.91 277.23, 26.04 277.23, 0 277.23 M0 277.23 C0 216.66, 0 156.08, 0 0 M0 277.23 C0 174.95, 0 72.68, 0 0" stroke="#000000" stroke-width="1" fill="none"></path></g><g transform="translate(370.3226623535156 99.05735778808594) rotate(0 22.5 11)"><text x="0" y="17" font-family="Helvetica, Segoe UI Emoji" font-size="16px" fill="#000000" text-anchor="start" style="white-space: pre;" direction="ltr">任务 1</text></g><g transform="translate(478.7673645019531 97.51072692871094) rotate(0 22.5 11)"><text x="0" y="17" font-family="Helvetica, Segoe UI Emoji" font-size="16px" fill="#000000" text-anchor="start" style="white-space: pre;" direction="ltr">任务 2</text></g><g stroke-linecap="round"><g transform="translate(392.2072296142578 86.51435852050781) rotate(0 0.1727752685546875 -20.829193115234375)"><path d="M0 0 C0.06 -6.94, 0.29 -34.72, 0.35 -41.66 M0 0 C0.06 -6.94, 0.29 -34.72, 0.35 -41.66" stroke="#000000" stroke-width="1" fill="none"></path></g></g><g stroke-linecap="round"><g transform="translate(498.2220916748047 86.37727355957031) rotate(0 0.1727752685546875 -20.829193115234375)"><path d="M0 0 C0.06 -6.94, 0.29 -34.72, 0.35 -41.66 M0 0 C0.06 -6.94, 0.29 -34.72, 0.35 -41.66" stroke="#000000" stroke-width="1" fill="none"></path></g></g><g stroke-linecap="round"><g transform="translate(394.76036071777344 407.83045959472656) rotate(0 0.1727752685546875 -20.829193115234375)"><path d="M0 0 C0.06 -6.94, 0.29 -34.72, 0.35 -41.66 M0 0 C0.06 -6.94, 0.29 -34.72, 0.35 -41.66" stroke="#000000" stroke-width="1" fill="none"></path></g></g><g stroke-linecap="round"><g transform="translate(501.20860290527344 407.8717803955078) rotate(0 0.1727752685546875 -20.829193115234375)"><path d="M0 0 C0.06 -6.94, 0.29 -34.72, 0.35 -41.66 M0 0 C0.06 -6.94, 0.29 -34.72, 0.35 -41.66" stroke="#000000" stroke-width="1" fill="none"></path></g></g><g stroke-linecap="round"><g transform="translate(394.3263244628906 133.91722106933594) rotate(0 0.21563720703125 105.6165771484375)"><path d="M0 0 C0.07 35.21, 0.36 176.03, 0.43 211.23 M0 0 C0.07 35.21, 0.36 176.03, 0.43 211.23" stroke="#0b7285" stroke-width="1" fill="none"></path></g><g transform="translate(394.3263244628906 133.91722106933594) rotate(0 0.21563720703125 105.6165771484375)"><path d="M-9.89 183.06 C-7.61 189.28, -5.33 195.49, 0.43 211.23 M-9.89 183.06 C-7.48 189.64, -5.07 196.21, 0.43 211.23" stroke="#0b7285" stroke-width="1" fill="none"></path></g><g transform="translate(394.3263244628906 133.91722106933594) rotate(0 0.21563720703125 105.6165771484375)"><path d="M10.63 183.02 C8.38 189.25, 6.13 195.47, 0.43 211.23 M10.63 183.02 C8.25 189.6, 5.87 196.19, 0.43 211.23" stroke="#0b7285" stroke-width="1" fill="none"></path></g></g><g stroke-linecap="round"><g transform="translate(500.0039367675781 134.17356872558594) rotate(0 0.21563720703125 105.6165771484375)"><path d="M0 0 C0.07 35.21, 0.36 176.03, 0.43 211.23 M0 0 C0.07 35.21, 0.36 176.03, 0.43 211.23" stroke="#0b7285" stroke-width="1" fill="none"></path></g><g transform="translate(500.0039367675781 134.17356872558594) rotate(0 0.21563720703125 105.6165771484375)"><path d="M-9.89 183.06 C-7.47 189.65, -5.06 196.24, 0.43 211.23 M-9.89 183.06 C-6.19 193.15, -2.5 203.24, 0.43 211.23" stroke="#0b7285" stroke-width="1" fill="none"></path></g><g transform="translate(500.0039367675781 134.17356872558594) rotate(0 0.21563720703125 105.6165771484375)"><path d="M10.63 183.02 C8.25 189.62, 5.86 196.22, 0.43 211.23 M10.63 183.02 C6.98 193.12, 3.33 203.22, 0.43 211.23" stroke="#0b7285" stroke-width="1" fill="none"></path></g></g></svg>